<?xml version="1.0" encoding="UTF-8"?>
<svg width="82px" height="77px" viewBox="0 0 82 77" version="1.1" xmlns="http://www.w3.org/2000/svg" xmlns:xlink="http://www.w3.org/1999/xlink">
    <!-- Generator: Sketch 61 (89581) - https://sketch.com -->
    <title>pic_search_nothing</title>
    <desc>Created with Sketch.</desc>
    <g id="首页+互动交流" stroke="none" stroke-width="1" fill="none" fill-rule="evenodd">
        <g id="搜索-无结果" transform="translate(-147.000000, -296.000000)" fill="#CCCCCC" fill-rule="nonzero">
            <g id="pic_search_nothing" transform="translate(147.000000, 296.000000)">
                <path d="M23.4759125,16.0009757 L17.3855863,9.09934064 C16.57428,8.69368795 16.57428,7.47488199 17.3855863,6.66173217 C17.7912389,6.25607949 18.6025452,5.85042594 19.415695,6.66173217 L25.9116713,13.9708583 C26.317324,14.7821645 26.317324,15.5934673 25.9116713,16.4047761 C25.5060186,16.8122733 25.1003651,16.8122733 24.6947124,16.8122733 C24.2890597,16.8122733 23.8834061,16.4066206 23.4759125,16.000967 L23.4759125,16.0009757 Z M57.1708946,16.8122819 C56.7652419,16.8122819 56.3595884,16.4066292 56.3595884,16.4066292 C55.9539357,15.595323 55.9539357,14.7840202 56.3595884,13.9708704 L62.4499146,7.06923536 C62.8555673,6.25792913 64.0725236,6.25792913 64.4781823,7.06923536 C64.883835,7.88054159 64.883835,8.69184437 64.4781823,9.50315319 L58.3896971,16.4066292 C57.9840444,16.8122819 57.5783909,16.8122819 57.1727382,16.8122819 L57.1708946,16.8122819 Z M40.9318398,14.3765231 C40.1205336,14.3765231 39.3092308,13.5652168 39.3092308,12.3482553 L39.3092308,1.79018599 C39.3092308,0.97887976 40.120537,0.167576985 40.9318398,0.167576985 C41.743146,0.167576985 42.5562984,0.978883217 42.5562984,1.79018599 L42.5562984,12.7501629 C42.5562984,13.5614692 41.7449922,14.3727719 40.9336894,14.3727719 L40.9318398,14.3765231 Z M81.5285175,47.2602569 L81.5285175,70.8065969 C81.5285175,74.0536645 79.0945651,76.8969231 75.8456564,76.8969231 L6.01805772,76.8969231 C2.77468071,76.8969231 0.335231243,74.0555055 0.335231243,70.8065969 L0.335231243,47.2602569 L12.9215078,26.5571755 C14.1384667,24.5270668 16.1685755,23.3082669 18.1986842,23.3082669 L63.6668796,23.3082669 C65.6951473,23.3082669 67.727097,24.5252258 68.944056,26.5571755 L81.5285175,47.2602569 L81.5285175,47.2602569 Z M79.0945651,68.372679 L78.2832588,50.5073246 L53.5181449,50.5073246 C53.1124922,50.5073246 52.7068387,51.3186308 52.7068387,51.7242835 L52.7068387,52.5374333 C52.301186,58.2221094 47.4296623,63.0936011 40.5280013,63.0936011 C33.6263663,63.0936011 28.7548745,57.8164248 28.3491639,52.5374333 L28.3491639,51.7261271 C28.3491639,50.9148208 27.9435113,50.5091681 27.5378577,50.5091681 L2.76902721,50.5091681 L2.76902721,68.3708061 C2.76902721,72.8366736 3.58033344,74.4611323 7.64055351,74.4611323 L73.4098362,74.4611323 C77.8757038,74.4611323 79.0926627,72.8385233 79.0926627,68.3708061 L79.0945651,68.372679 Z M14.951582,28.5854692 L3.58036283,47.2602569 L29.9680598,47.2602569 C30.3737125,47.2602569 30.7793661,48.0715631 30.7793661,48.4772158 L30.7793661,49.2903656 C30.7793661,55.3806919 35.2470833,60.2522441 40.5242856,60.2522441 C45.803303,60.2522441 50.2692051,55.3807178 50.2692051,49.2903656 L50.2692051,48.4790594 C50.2692051,47.6677532 50.6748578,47.2621005 51.0805114,47.2621005 L77.4682084,47.2621005 L66.1062374,28.5854977 C65.7005847,27.7741915 64.4817788,26.9610391 63.2629789,26.9610391 L17.7929684,26.9610391 C16.5760095,26.9610391 15.7647007,27.3666917 14.9534005,28.5836481 L14.951582,28.5854692 Z" id="形状"></path>
                <path d="M14.9516684,28.5873387 C15.7629747,27.3703798 16.5742774,26.96288 17.7912363,26.96288 L63.2612468,26.96288 C64.4782057,26.96288 65.6970056,27.7741863 66.1045053,28.5854891 L77.4701929,47.2602768 L51.0824958,47.2602768 C50.6768431,47.2602768 50.2711896,47.6659295 50.2711896,48.4772357 L50.2711896,49.2903855 C50.2711896,55.3807117 45.805322,60.252264 40.5262701,60.252264 C35.2490937,60.252264 30.783252,55.3807377 30.783252,49.2903855 L30.783252,48.4790793 C30.783252,48.0734266 30.3775994,47.2621204 29.9719458,47.2621204 L3.58053223,47.2621204 L14.9480348,28.5873326 L14.9516684,28.5873387 Z" id="路径" opacity="0.3"></path>
            </g>
        </g>
    </g>
</svg>