<?xml version="1.0" encoding="UTF-8"?>
<svg width="36px" height="28px" viewBox="0 0 36 28" version="1.1" xmlns="http://www.w3.org/2000/svg" xmlns:xlink="http://www.w3.org/1999/xlink">
    <!-- Generator: Sketch 61.2 (89653) - https://sketch.com -->
    <title>icon_home_lingshouhudinghuo</title>
    <desc>Created with Sketch.</desc>
    <g id="首页+互动交流" stroke="none" stroke-width="1" fill="none" fill-rule="evenodd">
        <g id="首页" transform="translate(-187.000000, -1036.000000)">
            <g id="编组-7" transform="translate(187.000000, 1036.000000)">
                <rect id="矩形" fill="#D8D8D8" opacity="0" x="0" y="0" width="36" height="28"></rect>
                <path d="M13.5,0 L25,5.6244375 L25,21.3755625 L13.5,27 L2,21.3755625 L2,5.6244375 L13.5,0 Z M19.25,8.1627907 L12.8611111,8.1627907 L12.8611111,9.77740864 L16.0555556,9.77740864 L16.0555556,17.8504983 L12.8611111,17.8504983 L12.8611111,19.4651163 L17.6527778,19.4651163 L17.6527778,9.77740864 L19.25,9.77740864 L19.25,8.1627907 Z M10.5185185,11.3023256 L7.11111111,11.3023256 L7.11111111,12.9348837 L8.81481481,12.9348837 L8.81481481,19.4651163 L12.2222222,17.8325581 L12.2222222,16.2 L10.5185185,17.0162791 L10.5185185,11.3023256 Z M10.9444444,7.53488372 L8.38888889,7.53488372 L8.38888889,9.41860465 L10.9444444,9.41860465 L10.9444444,7.53488372 Z" id="形状结合" fill="#5174FF"></path>
            </g>
        </g>
    </g>
</svg>