<?xml version="1.0" encoding="UTF-8"?>
<svg width="36px" height="28px" viewBox="0 0 36 28" version="1.1" xmlns="http://www.w3.org/2000/svg" xmlns:xlink="http://www.w3.org/1999/xlink">
    <!-- Generator: Sketch 61.2 (89653) - https://sketch.com -->
    <title>icon_home_zhiyingdian</title>
    <desc>Created with Sketch.</desc>
    <g id="首页+互动交流" stroke="none" stroke-width="1" fill="none" fill-rule="evenodd">
        <g id="首页" transform="translate(-16.000000, -1036.000000)">
            <g id="编组-9" transform="translate(16.000000, 1036.000000)">
                <rect id="矩形" fill="#D8D8D8" opacity="0" x="0" y="0" width="36" height="28"></rect>
                <path d="M4.14295603,6.42456005 L2,12.1774017 C2,13.8995049 3.39298775,15.3284162 5.10722568,15.3284162 C6.82137707,15.3284162 8.24995674,13.9361391 8.24995674,12.1774017 C8.24995674,13.8995049 9.64282913,15.3284162 11.3571824,15.3284162 C13.0714492,15.3284162 14.4999135,13.9361391 14.4999135,12.1774017 C14.4999135,13.8995049 15.8927859,15.3284162 17.6070815,15.3284162 C19.3214348,15.3284162 20.7141918,13.9361391 20.7141918,12.1774017 C20.7141918,13.8995049 22.1070353,15.3284162 23.8570382,15.3284162 C25.5713915,15.3284162 27,13.9361391 27,12.1774017 L24.7856582,6.42456005 L4.14295603,6.42456005 Z M23.1535285,23.1364936 L5.88241711,23.1364936 L5.88241711,16.0133282 L4.08333333,16.0133282 L4.08333333,25 L24.9166667,25 L24.9166667,16.0133282 L23.1535285,16.0133282 L23.1535285,23.1364936 Z M25.0068613,6.51383595 L24.8264721,6.33528416 L25.0068613,6.51383595 Z M23.1433049,5.05473603 C23.7546885,5.05473603 24.2222222,4.60956212 24.2222222,4.02727122 C24.2222222,3.44520156 23.7547175,3 23.1433049,3 L5.16213445,3 C4.55086705,3 4.08333333,3.44517394 4.08333333,4.02727125 C4.08333333,4.60956215 4.55086708,5.05473603 5.16213445,5.05473603 L23.1433049,5.05473603 Z" id="形状" fill="#5174FF" fill-rule="nonzero"></path>
            </g>
        </g>
    </g>
</svg>