<?xml version="1.0" encoding="UTF-8"?>
<svg width="36px" height="28px" viewBox="0 0 36 28" version="1.1" xmlns="http://www.w3.org/2000/svg" xmlns:xlink="http://www.w3.org/1999/xlink">
    <!-- Generator: Sketch 61.2 (89653) - https://sketch.com -->
    <title>icon_home_yancaonongye</title>
    <desc>Created with Sketch.</desc>
    <g id="首页+互动交流" stroke="none" stroke-width="1" fill="none" fill-rule="evenodd">
        <g id="首页" transform="translate(-187.000000, -1084.000000)">
            <g id="编组-4" transform="translate(187.000000, 1084.000000)">
                <rect id="矩形" fill="#D8D8D8" opacity="0" x="0" y="0" width="36" height="28"></rect>
                <path d="M13.3474242,0 C16.1107913,2.00665162 16.4837738,5.79227618 14.4663718,11.3568737 C13.4293471,14.2172977 12.0938641,16.0810699 11.9257241,18.6079166 C11.7772839,20.83871 12.1927411,23.9787052 14.5372873,24.6272629 C17.2939743,25.3898285 18.5957413,26.1807409 18.4425883,27 L18.4425883,27 L7.18336489,27 C8.33618742,25.7618665 9.62407243,24.8902332 11.0470199,24.3851 C8.40172602,19.9751469 9.1432547,17.350985 10.5637576,14.9023535 C4.0063602,14.1890276 3.56657975,8.13556447 4.22150105,3.84222324 C10.9502184,5.62887976 11.5414337,8.52364277 11.7714209,11.2167778 C11.8143316,11.7192586 11.6692683,12.6399105 11.370527,13.5086541 L11.2917365,13.7260086 C12.2025931,12.3130531 13.1952777,10.8718376 13.7399791,9.08730247 C14.829382,5.51823213 14.6985303,2.48913131 13.3474242,0 Z M24.7867359,9.00930145 L25,9.0107592 C24.0383856,16.9778321 20.8360858,18.1185787 17.8057957,18.8145994 C16.9011772,19.0223792 14.7007025,18.8532829 13.419488,18.1576788 C13.1059478,10.4474667 19.9782143,8.95411975 25,9.0107592 Z" id="形状结合" fill="#00A87E"></path>
            </g>
        </g>
    </g>
</svg>