<?xml version="1.0" encoding="UTF-8"?>
<svg width="36px" height="28px" viewBox="0 0 36 28" version="1.1" xmlns="http://www.w3.org/2000/svg" xmlns:xlink="http://www.w3.org/1999/xlink">
    <!-- Generator: Sketch 61.2 (89653) - https://sketch.com -->
    <title>icon_home_zhenjiayanshibie</title>
    <desc>Created with Sketch.</desc>
    <g id="首页+互动交流" stroke="none" stroke-width="1" fill="none" fill-rule="evenodd">
        <g id="首页" transform="translate(-16.000000, -1084.000000)">
            <g id="icon_home_zhenjiayanshibie" transform="translate(16.000000, 1084.000000)">
                <rect id="矩形" fill="#D8D8D8" opacity="0" x="0" y="0" width="36" height="28"></rect>
                <path d="M3.89182886,19.53125 L3.89182886,24.5625 L8.96682886,24.5625 L8.96682886,26 L2.44182886,26 L2.44182886,19.53125 L3.89182886,19.53125 Z M25.375,19.53125 L25.375,26 L18.85,26 L18.85,24.5625 L23.9256961,24.5625 L23.925,19.53125 L25.375,19.53125 Z M15.2245066,7.34468686 C19.0505537,7.68626188 22.0975271,10.7067212 22.4424592,14.4996745 L18.85,14.5 L18.85,15.9375 L22.4425443,15.9368892 C22.0980285,19.7302817 19.0508685,22.75121 15.2245066,23.0928131 L15.225,19.53125 L13.775,19.53125 L13.7744991,23.0927243 C9.7100258,22.7293577 6.525,19.3427987 6.525,15.21875 C6.525,11.0947013 9.7100258,7.70814234 13.7744991,7.34477568 L13.775,10.90625 L15.225,10.90625 L15.2245066,7.34468686 Z M10.875,14.5 L7.30346153,14.5 L7.30346153,15.9375 L10.875,15.9375 L10.875,14.5 Z M5.8,14.140625 L5.8,15.578125 L0,15.578125 L0,14.140625 L5.8,14.140625 Z M29,14.140625 L29,15.578125 L23.2,15.578125 L23.2,14.140625 L29,14.140625 Z M8.96682886,3 L8.96682886,4.4375 L3.89182886,4.4375 L3.89182886,9.46875 L2.44182886,9.46875 L2.44182886,3 L8.96682886,3 Z M25.375,3 L25.375,9.46875 L23.925,9.46875 L23.9256961,4.4375 L18.85,4.4375 L18.85,3 L25.375,3 Z" id="形状结合" fill="#129AE9"></path>
            </g>
        </g>
    </g>
</svg>