<?xml version="1.0" encoding="UTF-8"?>
<svg width="36px" height="28px" viewBox="0 0 36 28" version="1.1" xmlns="http://www.w3.org/2000/svg" xmlns:xlink="http://www.w3.org/1999/xlink">
    <!-- Generator: Sketch 61.2 (89653) - https://sketch.com -->
    <title>icon_banjianchaxun</title>
    <desc>Created with Sketch.</desc>
    <g id="首页+互动交流" stroke="none" stroke-width="1" fill="none" fill-rule="evenodd">
        <g id="首页" transform="translate(-16.000000, -829.000000)">
            <g id="编组-30" transform="translate(16.000000, 829.000000)">
                <rect id="矩形" fill="#D8D8D8" opacity="0" x="0" y="0" width="36" height="28"></rect>
                <path d="M22.1538462,2 C22.621164,2 23,2.42906045 23,2.95833333 L23,24 C23,24.5522847 22.5522847,25 22,25 L1.84615385,25 C1.37883598,25 1,24.5709396 1,24.0416667 L1,2.95833333 C1,2.42906045 1.37883598,2 1.84615385,2 L22.1538462,2 Z M19.2106304,13.3512538 C17.3613166,11.8594926 14.653621,11.9845678 12.9568159,13.6401331 C11.2600108,15.2956983 11.1300682,17.9392941 12.6566947,19.7458999 C14.1833212,21.5525056 16.8663052,21.9301722 18.8534342,20.6181754 L18.8534342,20.6181754 L20.4755111,22.2242099 L21.7447418,20.9874642 L20.0998188,19.4020835 C21.4449335,17.4628248 21.0599442,14.843015 19.2106304,13.3512538 Z M16.2447418,13.9627156 C17.8803544,13.9627156 19.2062803,15.2572946 19.2062803,16.8542386 C19.2062803,18.4511827 17.8803544,19.7457616 16.2447418,19.7457616 C14.6091293,19.7457616 13.2832034,18.4511827 13.2832034,16.8542386 C13.2832034,15.2572946 14.6091293,13.9627156 16.2447418,13.9627156 Z M12.8461538,10.2614943 L4.38461538,10.2614943 L4.38461538,11.9137931 L12.8461538,11.9137931 L12.8461538,10.2614943 Z M18.7692308,6.13074713 L4.38461538,6.13074713 L4.38461538,7.78304598 L18.7692308,7.78304598 L18.7692308,6.13074713 Z" id="形状结合" fill="#00A87E" fill-rule="nonzero"></path>
            </g>
        </g>
    </g>
</svg>