<?xml version="1.0" encoding="UTF-8"?>
<svg width="36px" height="28px" viewBox="0 0 36 28" version="1.1" xmlns="http://www.w3.org/2000/svg" xmlns:xlink="http://www.w3.org/1999/xlink">
    <!-- Generator: Sketch 61.2 (89653) - https://sketch.com -->
    <title>icon_home_zaixiainbanzheng</title>
    <desc>Created with Sketch.</desc>
    <g id="首页+互动交流" stroke="none" stroke-width="1" fill="none" fill-rule="evenodd">
        <g id="首页" transform="translate(-187.000000, -877.000000)">
            <g id="编组-28" transform="translate(187.000000, 877.000000)">
                <rect id="矩形" fill="#D8D8D8" opacity="0" x="0" y="0" width="36" height="28"></rect>
                <path d="M23.9859839,23.2484213 L4.01352295,23.2484213 C3.4535101,23.2484213 3,23.5405627 3,24.1242106 C3,24.7075986 3.4535101,25 4.01352295,25 L23.9859839,25 C24.5462463,25 24.9997564,24.7075986 24.9997564,24.1242106 C24.9997564,23.5405627 24.5461964,23.2484213 23.9859839,23.2484213 Z M22.1126533,14.4147517 L18.2830457,14.4147517 C18.2514542,14.328447 18.2318406,14.2461977 18.2239552,14.1681596 C18.17275,13.4945158 18.5000938,12.9602071 19.1271325,11.990632 C19.8647165,10.8607695 20.779672,9.45145679 20.779672,7.36839628 C20.779672,5.60180333 20.1013782,3.98697131 18.8746501,2.81603613 C17.6285079,1.6285679 15.944377,1 14.003771,1 C12.0633646,1 10.3792835,1.6285679 9.13309149,2.81603613 C7.9064133,3.9870233 7.22811951,5.60180333 7.22811951,7.36839628 C7.22811951,9.4514048 8.14706761,10.8565062 8.88060909,11.990632 C9.51169032,12.9562038 9.83504148,13.4945158 9.78383631,14.1681596 C9.77590101,14.2461457 9.7560877,14.328447 9.72469584,14.4147517 L5.89503838,14.4147517 C4.29754694,14.4147517 3,15.741763 3,17.3770274 L3,21.4336312 L24.9999661,21.4336312 L24.9999661,17.3770274 C25.0076418,15.741763 23.7100948,14.4147517 22.1126533,14.4147517 Z" id="形状" fill="#00A87E" fill-rule="nonzero"></path>
            </g>
        </g>
    </g>
</svg>