<?xml version="1.0" encoding="UTF-8"?>
<svg width="36px" height="28px" viewBox="0 0 36 28" version="1.1" xmlns="http://www.w3.org/2000/svg" xmlns:xlink="http://www.w3.org/1999/xlink">
    <!-- Generator: Sketch 61.2 (89653) - https://sketch.com -->
    <title>icon_home_quanliqingdan</title>
    <desc>Created with Sketch.</desc>
    <g id="首页+互动交流" stroke="none" stroke-width="1" fill="none" fill-rule="evenodd">
        <g id="首页" transform="translate(-16.000000, -925.000000)">
            <g id="编组-16" transform="translate(16.000000, 925.000000)">
                <rect id="矩形" fill="#D8D8D8" opacity="0" x="0" y="0" width="36" height="28"></rect>
                <path d="M9.2,6.90666667 L11.5,5.06666667 L13.8,6.90666667 L13.8,2 L23,2 L23,25 L0,25 L0,2 L9.2,2 L9.2,6.90666667 Z M20.8807844,15.9198237 C20.6262511,15.7112903 20.1433124,15.7818237 19.9623791,16.063957 C19.7415791,16.3920903 19.5146457,16.7202237 19.2969124,17.048357 C18.3616516,18.441916 18.1913822,18.6538944 17.2508261,20.0438849 C16.9648553,20.4725211 16.6760919,20.8992875 16.3845541,21.3241569 C16.1377487,21.1309569 15.9106927,20.9500236 15.6853541,20.7737516 C14.7684207,20.0561516 15.050141,20.0745516 14.113213,19.3982902 C13.9353464,19.2694902 13.570413,19.2694902 13.369485,19.3768236 C13.0352184,19.5624182 13.0229517,19.9672182 13.036813,20.3520236 C13.047485,20.6157569 13.248413,20.6725516 13.3818744,20.7737516 C14.5118797,21.6584236 14.4632261,21.7780236 15.5949487,22.6597516 C15.8126821,22.8284182 16.0181487,23.0246849 16.2266821,23.2056182 L16.2266821,23.2056182 L16.9626821,23.2056182 C18.6340154,20.7216182 19.5315737,19.411285 21.2013124,16.927285 L21.2013124,16.927285 L21.2013124,16.1851517 C21.0939791,16.099285 20.9866457,16.008757 20.8807844,15.9198237 Z M11.5,18.099586 L3.83333333,18.099586 L3.83333333,19.6328273 L11.5,19.6328273 L11.5,18.099586 Z M17.6333333,13.499586 L3.83333333,13.499586 L3.83333333,15.0608772 L17.6333333,15.0608772 L17.6333333,13.499586 Z M17.6333333,8.899586 L3.83333333,8.899586 L3.83333333,10.4328273 L17.6333333,10.4328273 L17.6333333,8.899586 Z" id="形状结合" fill="#129AE9" fill-rule="nonzero"></path>
            </g>
        </g>
    </g>
</svg>