<?xml version="1.0" encoding="UTF-8"?>
<svg width="36px" height="28px" viewBox="0 0 36 28" version="1.1" xmlns="http://www.w3.org/2000/svg" xmlns:xlink="http://www.w3.org/1999/xlink">
    <!-- Generator: Sketch 61.2 (89653) - https://sketch.com -->
    <title>icon_fuwuzhinan</title>
    <desc>Created with Sketch.</desc>
    <g id="首页+互动交流" stroke="none" stroke-width="1" fill="none" fill-rule="evenodd">
        <g id="首页" transform="translate(-16.000000, -877.000000)">
            <g id="编组-29" transform="translate(16.000000, 877.000000)">
                <rect id="矩形" fill="#D8D8D8" opacity="0" x="0" y="0" width="36" height="28"></rect>
                <path d="M23.9853778,2.48003245 C23.9995973,2.41172429 24.0034782,2.34150815 23.9968789,2.27194326 C23.9954413,2.25767 23.9968789,2.24114305 23.9947225,2.22837225 C23.9828324,2.16782801 23.9516667,2.11327916 23.906307,2.07362 C23.8948059,2.06460529 23.8811482,2.05934673 23.8689282,2.05183449 C23.8235483,2.02607504 23.7731592,2.0114329 23.7215692,2.0090147 C23.710068,2.00826348 23.7035986,2 23.6913785,2 C23.6827526,2 23.6712514,2.00525858 23.6619067,2.00525858 C23.6097301,2.00906655 23.5579977,2.0178677 23.5073594,2.03155143 C23.4807629,2.03831245 23.4570417,2.04056613 23.4290076,2.04958081 C23.3304213,2.0820011 23.234505,2.12269986 23.1421966,2.17127918 L9.22503474,9.41759067 C8.45445483,9.81949578 7.50848176,10.8043511 7.12247296,11.6074101 L0.16425146,26.0992818 C-0.108901859,26.6694612 -0.0298311555,27 0.315923446,27 C0.456813046,27 0.641550962,26.9444094 0.865105386,26.8287208 L14.7808296,19.5824093 C15.5521283,19.1812555 16.4981014,18.1956489 16.8833913,17.3925899 L23.8423317,2.90071816 C23.906307,2.76700022 23.9544683,2.62577 23.9853778,2.48003245 Z M14.3447424,17.6761426 L3.55555556,23.2962963 L8.95084695,12.057448 C9.06531366,11.8195965 9.29075728,11.5241062 9.54551554,11.2592593 L15.1111111,17.0567072 C14.8570508,17.3222837 14.5736759,17.5572168 14.3447424,17.6761426 L14.3447424,17.6761426 Z" id="形状" fill="#5174FF" fill-rule="nonzero"></path>
            </g>
        </g>
    </g>
</svg>