<?xml version="1.0" encoding="UTF-8"?>
<svg width="36px" height="28px" viewBox="0 0 36 28" version="1.1" xmlns="http://www.w3.org/2000/svg" xmlns:xlink="http://www.w3.org/1999/xlink">
    <!-- Generator: Sketch 61.2 (89653) - https://sketch.com -->
    <title>iocn_home_banjiangongkai</title>
    <desc>Created with Sketch.</desc>
    <g id="首页+互动交流" stroke="none" stroke-width="1" fill="none" fill-rule="evenodd">
        <g id="首页" transform="translate(-187.000000, -829.000000)">
            <g id="iocn_home_banjiangongkai" transform="translate(187.000000, 829.000000)">
                <rect id="矩形" fill="#D8D8D8" opacity="0" x="0" y="0" width="36" height="28"></rect>
                <path d="M23.1659389,3 C24.1777293,3 25,3.80898876 25,4.79775281 L25,4.79775281 L25,24.1200001 C25,25.7105801 23.7105801,27 22.1200001,27 L22.1200001,27 L5.83406114,27 C4.82227074,27 4,26.1940075 4,25.2022472 L4,25.2022472 L4,4.79775281 C4,3.80599251 4.82227074,3 5.83406114,3 L5.83406114,3 Z M17.2894644,14.6363636 C15.5532199,14.6363636 14.137936,16.0236296 14.137936,17.7255022 L14.137936,17.7255022 L14.137936,18.4266258 L14.1449163,18.5282245 C14.1955476,18.8937086 14.5154469,19.1756895 14.9021282,19.1756895 C15.3239622,19.1756895 15.6663203,18.840109 15.6663203,18.4266258 L15.6663203,18.4266258 L15.6663203,17.7255022 L15.6729606,17.580805 C15.7476737,16.7705663 16.4435886,16.134491 17.2894644,16.134491 C18.1850976,16.134491 18.9126085,16.8475996 18.9126085,17.7255022 L18.9126085,17.7255022 L18.9126085,18.1389854 L18.7251371,18.1892572 C17.1793393,18.6464605 16.0545299,20.0512873 16.0545299,21.7165134 C16.0545299,23.7509704 17.7357526,25.3989105 19.8112985,25.3989105 C21.5453801,25.3989105 23.568067,24.1599151 23.568067,21.7180116 C23.568067,18.9130598 21.2956433,18.2263569 20.4409928,18.0850528 L20.4409928,18.0850528 L20.4409928,17.7255022 L20.4359891,17.5503237 C20.3430054,15.9268124 18.9658384,14.6363636 17.2894644,14.6363636 Z M19.8112985,19.53524 C21.0401194,19.53524 22.0396827,20.5150153 22.0396827,21.7195097 C22.0396827,22.9240041 21.0401194,23.9037794 19.8112985,23.9037794 C18.5824775,23.9037794 17.5829142,22.9240041 17.5829142,21.7195097 C17.5829142,20.5150153 18.5824775,19.53524 19.8112985,19.53524 Z M19.8112985,20.8146408 C19.5575867,20.8146408 19.3527832,21.0153899 19.3527832,21.264079 L19.3527832,21.264079 L19.3527832,22.1719442 L19.3601546,22.2528554 C19.3988989,22.4627658 19.5857769,22.6213824 19.8112985,22.6213824 C20.0650102,22.6213824 20.2698137,22.4206333 20.2698137,22.1719442 L20.2698137,22.1719442 L20.2698137,21.264079 L20.2624423,21.1831678 C20.223698,20.9732573 20.03682,20.8146408 19.8112985,20.8146408 Z M12.8875037,14.7164454 L8.51326785,14.7164454 C8.02112811,14.7164454 7.62069143,15.1329248 7.62069143,15.6452843 C7.62069143,16.1576439 8.02112811,16.5741233 8.51326785,16.5741233 L12.8875037,16.5741233 C13.3765866,16.5741233 13.7770233,16.1576439 13.7800801,15.6452843 C13.7800801,15.1329248 13.3796434,14.7164454 12.8875037,14.7164454 Z M19.6093377,11.1838611 L8.52549493,11.1838611 C8.03335519,11.1838611 7.63291851,11.6003405 7.63291851,12.1127 C7.63291851,12.6250596 8.03335519,13.041539 8.52549493,13.041539 L19.6093377,13.041539 C20.0984207,13.041539 20.4988574,12.6250596 20.5019141,12.1127 C20.5019141,11.6003405 20.1014775,11.1838611 19.6093377,11.1838611 Z M19.6093377,7.36363636 L8.52549493,7.36363636 C8.03335519,7.36363636 7.63291851,7.78011576 7.63291851,8.29247531 C7.63291851,8.80483487 8.03335519,9.22131427 8.52549493,9.22131427 L19.6093377,9.22131427 C20.0984207,9.22131427 20.4988574,8.80483487 20.5019141,8.29247531 C20.5019141,7.78011576 20.1014775,7.36363636 19.6093377,7.36363636 Z" id="形状结合" fill="#5174FF" fill-rule="nonzero"></path>
            </g>
        </g>
    </g>
</svg>