<?xml version="1.0" encoding="UTF-8"?>
<svg width="48px" height="48px" viewBox="0 0 48 48" version="1.1" xmlns="http://www.w3.org/2000/svg" xmlns:xlink="http://www.w3.org/1999/xlink">
    <!-- Generator: Sketch 61.2 (89653) - https://sketch.com -->
    <title>icon_home_hudong_yancaoyishi</title>
    <desc>Created with Sketch.</desc>
    <g id="首页+互动交流" stroke="none" stroke-width="1" fill="none" fill-rule="evenodd">
        <g id="首页" transform="translate(-251.000000, -1992.000000)">
            <g id="icon_home_hudong_yancaoyishi" transform="translate(251.000000, 1992.000000)">
                <rect id="矩形" fill="#D8D8D8" opacity="0" x="0" y="0" width="48" height="48"></rect>
                <g id="编组-27" transform="translate(6.000000, 8.000000)">
                    <path d="M32.878,29 C34.0386571,29 35,27.9981727 35,26.7499001 L35,3.2500999 C35,2.00083797 34.0396241,1 32.88,1 L3.12200002,1 C1.96178866,1 1,2.00142363 1,3.2500999 L1,26.7499001 C1,27.9973589 1.96254958,29 3.12200002,29 L32.878,29 Z" id="路径" stroke="#235399" stroke-width="2"></path>
                    <path d="M29.9440974,24 L20.3666935,24 C20.2937491,23.0029911 20,23.6450648 20,22.9212363 C20,22.1994018 20.3548647,22.9351944 20.3666935,22 L29.9440974,22 C30.0880148,22.6241276 29.908611,22.2771685 29.908611,23.000997 C29.908611,23.7248255 30.0880148,23.3120638 29.9440974,24 L29.9440974,24 Z" id="路径" fill="#235399" fill-rule="nonzero"></path>
                    <path d="M29.9437803,16 L20.3120411,16 C19.9908509,15.6247505 19.9868856,15.5708583 20.0067122,14.9221557 C20.0225734,14.3792415 20.2386828,14.8742515 20.3120411,14 L29.9437803,14 C30.0885141,14.4371258 29.9080925,14.1197605 29.9080925,14.8443114 C29.9080925,15.5688623 30.0885141,15.3772455 29.9437803,16 Z" id="路径" fill="#235399" fill-rule="nonzero"></path>
                    <path d="M29.9557315,8 L20.290475,8 C20.2168615,7.19252714 20,7.64797367 20,6.92602132 C20,6.20406897 20.1551853,6.87828895 20.290475,6.00717288 L29.9557315,6.00717288 C30.100969,5.94551854 29.8423269,6.28163411 29.842327,7.00358646 C29.842327,7.72553881 30.1009691,7.50278766 29.9557315,8 Z" id="路径" fill="#235399" fill-rule="nonzero"></path>
                    <path d="M6.30345101,23.9928342 C6.03371678,22.9993975 6,23.7961338 6,23.0748986 C6,22.3536635 6.03371678,22.4967184 6.30345101,22 L15.8175328,22 C15.888933,22.0615931 16,22.2761754 16,22.9974105 C16,23.7186456 15.8274494,24.0544273 15.8175328,23.9928342 L6.30345101,23.9928342 L6.30345101,23.9928342 Z" id="路径" fill="#235399" fill-rule="nonzero"></path>
                    <path d="M14.9813779,15.3385493 C14.9805337,15.3411612 14.979744,15.3437406 14.9790088,15.3462856 C14.9809782,15.3394684 14.9829775,15.329859 14.9849201,15.317484 Z M15,14.9865577 L15,8.10943721 C15,7.18829025 14.8791563,7 14.4455545,7 L7.78821177,7 C7.041573,7 7,7.03555035 7,7.63934547 L7,14.5592557 C7,15.0666658 6.8568384,14.9655471 7.70829171,14.9655471 L14.3656344,14.9655471 C14.5573293,14.9655471 14.7220087,14.9714906 14.95714,14.9842405 C14.9720426,14.9850486 14.9863179,14.9858206 15,14.9865577 Z" id="路径" stroke="#235399" stroke-width="2" fill="#E3EBF1"></path>
                </g>
            </g>
        </g>
    </g>
</svg>