<?xml version="1.0" encoding="UTF-8"?>
<svg width="49px" height="48px" viewBox="0 0 49 48" version="1.1" xmlns="http://www.w3.org/2000/svg" xmlns:xlink="http://www.w3.org/1999/xlink">
    <!-- Generator: Sketch 61.2 (89653) - https://sketch.com -->
    <title>icon_home_hudong_zixunfuwu</title>
    <desc>Created with Sketch.</desc>
    <g id="首页+互动交流" stroke="none" stroke-width="1" fill="none" fill-rule="evenodd">
        <g id="首页" transform="translate(-251.000000, -1768.000000)">
            <g id="icon_home_hudong_zixunfuwu" transform="translate(251.000000, 1768.000000)">
                <rect id="矩形" fill="#D8D8D8" opacity="0" x="0.5" y="0" width="48" height="48"></rect>
                <path d="M41.9995298,29.3117886 L41.9995228,29.2676671 L41.9964581,10.0004471 C41.9959642,8.8957769 41.100363,8.00031818 39.9956927,7.99999996 L39.9959808,8 L10,8 C8.8954305,8 8,8.8954305 8,10 L8,29.2715194 C8,30.3760889 8.8954305,31.2715194 10,31.2715194 L19.5869446,31.2715194 L24.1994291,37.472545 L24.2641327,37.5711924 C24.4142755,37.8325151 24.7054647,38 25.0127725,38 C25.3200803,38 25.6112695,37.8325151 25.7614124,37.5711924 L25.8261845,37.4724528 L30.4426916,31.267508 L30.945099,31.267508 L40.000288,31.2675081 C41.089996,31.2678219 41.9762314,30.3961279 41.9995298,29.3117886 Z" id="形状" stroke="#235399" stroke-width="2"></path>
                <path d="M17,22 C18.1045695,22 19,21.1045695 19,20 C19,18.8954305 18.1045695,18 17,18 C15.8954305,18 15,18.8954305 15,20 C15,21.1045695 15.8954305,22 17,22 Z" id="路径" fill="#04549E" fill-rule="nonzero"></path>
                <path d="M25,22 C26.1045695,22 27,21.1045695 27,20 C27,18.8954305 26.1045695,18 25,18 C23.8954305,18 23,18.8954305 23,20 C23,21.1045695 23.8954305,22 25,22 Z" id="路径" fill="#04549E" fill-rule="nonzero"></path>
                <path d="M31,20 C31,21.1045695 31.8954305,22 33,22 C34.1045695,22 35,21.1045695 35,20 C35,18.8954305 34.1045695,18 33,18 C31.8954305,18 31,18.8954305 31,20 Z" id="路径" fill="#04549E" fill-rule="nonzero"></path>
            </g>
        </g>
    </g>
</svg>