<?xml version="1.0" encoding="UTF-8"?>
<svg width="48px" height="48px" viewBox="0 0 48 48" version="1.1" xmlns="http://www.w3.org/2000/svg" xmlns:xlink="http://www.w3.org/1999/xlink">
    <!-- Generator: Sketch 61.2 (89653) - https://sketch.com -->
    <title>icon_home_hudong_jubaotousu</title>
    <desc>Created with Sketch.</desc>
    <g id="首页+互动交流" stroke="none" stroke-width="1" fill="none" fill-rule="evenodd">
        <g id="首页" transform="translate(-251.000000, -1880.000000)">
            <g id="icon_home_hudong_jubaotousu" transform="translate(251.000000, 1880.000000)">
                <rect id="矩形" fill="#D8D8D8" opacity="0" x="0" y="0" width="48" height="48"></rect>
                <g id="编组-24" transform="translate(10.000000, 3.000000)">
                    <path d="M14.9651185,0 C12.2671064,0.140287388 9.74322781,0.474657787 7.46250192,0.997354866 C5.17770456,1.52160932 2.99696445,2.10243576 0.985581703,2.72153491 C0.437186495,2.89012175 0.0612022146,3.40289047 0.0612022146,3.98527432 C0.0612022146,5.72347082 0.0424891421,7.32134698 0.0267904987,8.80312019 C-0.112696378,21.5189674 -0.165351407,26.279229 12.3227367,33.1740413 C13.0141031,33.5536277 13.894897,33.8289473 14.9651185,34 C15.0116272,11.3324548 15.0116272,-0.000878496203 14.9651185,0 Z" id="路径" fill="#E3EBF1"></path>
                    <path d="M27.9143603,3.98760445 C27.9137577,3.83482625 27.8244656,3.71005168 27.7142943,3.67557542 C23.4468341,2.35308784 19.6448612,1.57943518 14.5707845,1.00179389 C14.5568836,1.00029191 14.5338691,0.999561133 14.5321167,0.999014739 C11.9742764,1.13647647 9.59220133,1.46349414 7.45058324,1.97080159 C5.26688598,2.4886935 3.18082146,3.062746 1.25635844,3.67499385 C1.14661411,3.70986485 1.05921192,3.8332824 1.05921192,3.98567128 C1.05921192,5.25227542 1.05141102,6.3341127 1.03230005,8.19025367 C1.02905439,8.50433683 1.02905439,8.50433683 1.02586296,8.81406577 C0.895456782,21.1015332 1.55870148,24.0471401 6.42136095,28.2314026 C7.93917762,29.5374664 9.89260829,30.8645844 12.4155528,32.3043356 C13.2824414,32.7962823 13.9284699,33 14.5459471,33 C15.1630184,33 15.8073971,32.8012082 16.6653253,32.3224647 C22.5578831,29.026162 25.3625002,26.4853205 26.7159181,23.2739088 C27.9014214,20.4609277 28.0766334,17.881008 27.9626573,9.2950881 C27.957784,8.91825777 27.957784,8.91825777 27.9528097,8.5339716 C27.927543,6.57279673 27.9163192,5.37035758 27.9143607,3.98760458 Z M27.9143607,3.98760458 C27.9143605,3.98741867 27.9143602,3.98723275 27.9143599,3.98704684 L27.9143621,3.98816231 C27.9143617,3.98797631 27.9143611,3.98779036 27.9143603,3.98760445 Z" id="路径" stroke="#235399" stroke-width="2"></path>
                    <path d="M14.000781,21.9541686 C15.1039199,21.9541686 16,22.8586025 16,23.9772036 C16,25.0927026 15.1068035,26 14.000781,26 C12.8960801,26 12,25.0942536 12,23.9772036 C12,22.8586025 12.8960801,21.9541686 14.000781,21.9541686 Z M14.0002001,7 C14.8747523,7 15.586332,7.76936533 15.586332,8.71928493 L15.586332,8.71928493 L15.586332,17.5400007 C15.586332,18.4875561 14.8770383,19.2579684 14.0002001,19.2579684 C13.1246955,19.2579684 12.4141001,18.4888395 12.4141001,17.5400007 L12.4141001,17.5400007 L12.4141001,8.71800151 C12.4141001,7.77051362 13.1246955,7 14.0002001,7 Z" id="形状结合" fill="#235399" fill-rule="nonzero"></path>
                </g>
            </g>
        </g>
    </g>
</svg>