<?xml version="1.0" encoding="UTF-8"?>
<svg width="48px" height="48px" viewBox="0 0 48 48" version="1.1" xmlns="http://www.w3.org/2000/svg" xmlns:xlink="http://www.w3.org/1999/xlink">
    <!-- Generator: Sketch 61.2 (89653) - https://sketch.com -->
    <title>icon_home_hudong_zaixianwenda</title>
    <desc>Created with Sketch.</desc>
    <g id="首页+互动交流" stroke="none" stroke-width="1" fill="none" fill-rule="evenodd">
        <g id="首页" transform="translate(-75.000000, -1880.000000)">
            <g id="icon_home_hudong_zaixianwenda" transform="translate(75.000000, 1880.000000)">
                <rect id="矩形" fill="#D8D8D8" opacity="0" x="0" y="0" width="48" height="48"></rect>
                <g id="编组-23" transform="translate(1.000000, 6.000000)">
                    <path d="M13.8839361,24.8740634 L13.9111921,24.8743513 C13.9483124,24.8744996 13.9507449,24.8745047 14.0146136,24.8746405 C14.1819694,24.8748771 14.1819694,24.8748771 14.434123,24.874997 C14.7835178,24.8751157 15.2883172,24.8750332 15.9354842,24.8747645 C17.0747673,24.8742914 18.6282918,24.8732551 20.4924684,24.8717769 C21.2947414,24.8711326 21.2947414,24.8711326 22.0830941,24.8704719 C23.2676434,24.8694704 24.4662738,24.8683974 25.617882,24.8673244 C26.8305894,24.8661799 26.8305894,24.8661799 27.1219966,24.8658937 L27.4518062,24.8655699 L31.1674925,27.6100054 L33.2561028,24.8658933 L38.1324124,24.8658933 C39.1593958,24.8658933 40,24.0094416 40,22.945066 L40,2.91982599 C40,1.85645457 39.1593986,1 38.1334232,1 L13.8685984,1 C12.8410156,1 12,1.85604824 12,2.91982599 L12,22.945066 C12,23.9389914 12.8722885,24.8633752 13.8741089,24.8739595 L13.8839361,24.8740634 C13.7736286,24.796066 13.8179723,24.822164 13.9066138,24.874333 C13.9081982,24.8743394 13.9097224,24.8743455 13.9111921,24.8743513 L14.5410762,24.8810061 L14.7908083,25.4994953 C14.2597497,25.1345298 13.9943575,24.9521413 13.8839361,24.8740634 Z" id="路径" stroke="#235399" stroke-width="2"></path>
                    <polygon id="路径" fill="#235399" fill-rule="nonzero" points="25 21 27 21 27 19 25 19"></polygon>
                    <path d="M29.7821941,7.24427186 C28.9701315,6.41662138 27.8825017,6 26.5184433,6 C25.230166,6 24.1959273,6.38772815 23.4122826,7.15945631 C22.628638,7.93025244 22.1575901,9.04217475 22,10.4933592 L23.7593253,10.727301 C23.9117485,9.64427184 24.2320955,8.84831067 24.7203664,8.33848542 C25.2086373,7.82866018 25.8174689,7.57328154 26.5468612,7.57328157 C27.302088,7.57328157 27.9384763,7.85475731 28.4586097,8.4167767 C28.9778819,8.97972816 29.2388097,9.63215534 29.2388097,10.3759223 C29.2388097,10.7860194 29.1501115,11.1634951 28.9718538,11.5120777 C28.7953185,11.8578641 28.4112465,12.3248155 27.8170544,12.9073398 C27.2228624,13.4907961 26.8129559,13.9344466 26.5838906,14.2401553 C26.2738773,14.6567767 26.0473954,15.0696699 25.9087506,15.4825631 C25.7184369,16.0268738 25.6237106,16.6746408 25.6237106,17.4258641 C25.6237106,17.5535534 25.6271552,17.7436893 25.6331832,18 L27.2796981,18 C27.2926154,17.2357282 27.3391173,16.6830291 27.4217875,16.343767 C27.5044577,16.0035728 27.6319076,15.7025243 27.8032761,15.4415534 C27.9737834,15.1787185 28.3389101,14.7732816 28.896934,14.2205825 C29.7288029,13.4003883 30.2851045,12.7022913 30.5710056,12.1290874 C30.8577499,11.5514511 31.0052497,10.904868 30.9998573,10.2491651 C30.9998573,9.07293206 30.5951178,8.07192234 29.7821941,7.24427186 L29.7821941,7.24427186 Z" id="路径" fill="#235399" fill-rule="nonzero"></path>
                    <path d="M21.9989891,28.4463994 C21.9989891,29.6610351 21.0568396,30.6436272 19.8963378,30.6436272 L10.1756192,30.6436272 L7.0640996,33 L5.31525983,30.6436272 L2.10265128,30.6436272 C0.940127745,30.6436272 0,29.6610352 0,28.4463994 L0,13.391282 C0,12.177673 0.940127745,11.195081 2.10265128,11.195081 L9.61558607,11 L9.60446629,23.3300362 C9.60446629,23.3300362 9.50640997,25.1925461 10.1968478,25.9718433 C11.1389973,27.0365747 12.8009006,27.0601898 12.8009006,27.0601898 L22,27.0725107 L21.9989891,28.4463994 Z" id="路径" fill="#E3EBF1" fill-rule="nonzero"></path>
                </g>
            </g>
        </g>
    </g>
</svg>