<?xml version="1.0" encoding="UTF-8"?>
<svg width="48px" height="48px" viewBox="0 0 48 48" version="1.1" xmlns="http://www.w3.org/2000/svg" xmlns:xlink="http://www.w3.org/1999/xlink">
    <!-- Generator: Sketch 61.2 (89653) - https://sketch.com -->
    <title>icon_home_hudong_zhengjidiaocha</title>
    <desc>Created with Sketch.</desc>
    <g id="首页+互动交流" stroke="none" stroke-width="1" fill="none" fill-rule="evenodd">
        <g id="首页" transform="translate(-75.000000, -1992.000000)">
            <g id="icon_home_hudong_zhengjidiaocha" transform="translate(75.000000, 1992.000000)">
                <rect id="矩形" fill="#D8D8D8" opacity="0" x="0" y="0" width="48" height="48"></rect>
                <path d="M34.8721883,9.02857192 C34.9080146,9.04041254 34.936384,9.0543935 34.9572018,9.06738695 L34.9584282,9.02857192 L34.8721883,9.02857192 Z M35,14.2909524 L35,15.0375074 L37,15.0375074 C37,14.2323171 36.2811631,13.8256874 35.620876,13.9958237 C35.4184126,14.0479925 35.2267145,14.1445879 35,14.2909513 Z M34.824787,14.4089282 C34.4432633,14.6757238 33.9289633,15.094315 33.2677536,15.6729929 C33.7416229,15.2747195 34.3898452,15.3960378 34.7078507,15.8288225 C34.800663,15.955134 34.8329656,16.042845 34.854874,16.1369503 C34.8569286,16.1457754 34.8513977,16.099296 34.8461318,16.0225927 C34.8307489,15.7985264 34.8225284,15.4254999 34.8225284,14.9134572 C34.8225284,14.7576559 34.8232812,14.5894749 34.824787,14.4089282 Z M8.12781167,9.02857192 L8.01042675,9.02857192 L8.01042675,9.09193891 C8.02787369,9.07480137 8.06715501,9.04861901 8.12781167,9.02857192 Z M8.01042675,37.9080611 L8.01042675,38.0181314 L34.9361696,38.0181314 L34.9354539,37.9449996 C34.8827187,37.9724802 34.7978957,38 34.6818182,38 L8.31818182,38 C8.14557416,38 8.04207578,37.9391489 8.01042675,37.9080611 Z M34.9024314,31.1227737 C34.9026155,31.1123685 34.9028033,31.1021571 34.9029946,31.0921397 C34.904774,30.9989824 34.9068468,30.9241402 34.9090676,30.8693643 C34.8741238,30.9370099 34.7809045,31.0854791 34.5702143,31.4210425 L34.9024314,31.1227737 Z M35,31.0351754 L36.1055543,30.0425947 C35.6807846,30.4000815 35,30.1634602 35,29.4941406 L35,31.0351754 Z M24.1941782,32.8059428 L28.5818999,31.6092423 C28.5976714,31.6049268 28.6120504,31.596589 28.6225544,31.5861187 L39.9736866,20.2352671 C40.0087851,20.2001133 40.0087763,20.1428359 39.9739121,20.1079445 L36.8922018,17.0263103 C36.8571677,16.9912771 36.8007192,16.9912771 36.7659959,17.0260273 L36.765713,17.0263103 L25.4139879,28.3777552 C25.4031481,28.3885939 25.39533,28.402076 25.3911167,28.4175665 L24.1941782,32.8059428 Z M18,28 L14.2782823,28 C14.6543443,28 15,28.3105261 15,28.75 L15,27.25 C15,27.6894739 14.6543443,28 14.2782823,28 L18,28 Z M18,28 L21.7217177,28 C21.3456557,28 21,27.6894739 21,27.25 L21,28.75 C21,28.3105261 21.3456557,28 21.7217177,28 L18,28 Z M19,24 L14.2721253,24 C14.6560163,24 15,24.316016 15,24.75 L15,23.25 C15,23.683984 14.6560163,24 14.2721253,24 L19,24 Z M19,24 L23.7278747,24 C23.3439837,24 23,23.683984 23,23.25 L23,24.75 C23,24.316016 23.3439837,24 23.7278747,24 L19,24 Z M21,20 L14.265414,20 C14.6581244,20 15,20.3220211 15,20.75 L15,19.25 C15,19.6779789 14.6581244,20 14.265414,20 L21,20 Z M21,20 L27.734586,20 C27.3418756,20 27,19.6779789 27,19.25 L27,20.75 C27,20.3220211 27.3418756,20 27.734586,20 L21,20 Z M21,16 L14.265414,16 C14.6581244,16 15,16.3220211 15,16.75 L15,15.25 C15,15.6779789 14.6581244,16 14.265414,16 L21,16 Z M21,16 L27.734586,16 C27.3418756,16 27,15.6779789 27,15.25 L27,16.75 C27,16.3220211 27.3418756,16 27.734586,16 L21,16 Z" id="形状结合" stroke="#235399" stroke-width="2"></path>
            </g>
        </g>
    </g>
</svg>