<?xml version="1.0" encoding="UTF-8"?>
<svg width="48px" height="48px" viewBox="0 0 48 48" version="1.1" xmlns="http://www.w3.org/2000/svg" xmlns:xlink="http://www.w3.org/1999/xlink">
    <!-- Generator: Sketch 64 (93537) - https://sketch.com -->
    <title>icon_home_hudong_wangzhannianbao</title>
    <desc>Created with Sketch.</desc>
    <g id="首页+互动交流" stroke="none" stroke-width="1" fill="none" fill-rule="evenodd">
        <g id="首页" transform="translate(-75.000000, -2751.000000)">
            <g id="编组-21" transform="translate(16.000000, 2736.000000)">
                <g id="icon_home_hudong_lingdaoxinxiang" transform="translate(59.000000, 15.000000)">
                    <g id="编组-4备份-2"></g>
                    <path d="M38.0679011,39 L10.0055225,39 C8.93822772,39 8,38.1541871 8,37.1106984 L8,10.8899006 C8,9.84581286 8.93822772,9 10.0055225,9 L38.0679011,9 C39.1351959,9 40,9.84581286 40,10.8899006 L40,37.1106984 C40,38.1541871 39.1351959,39 38.0679011,39 Z M10.3935002,36.7117004 L37.6477932,36.7117004 L37.6477932,11.4043716 L10.3935002,11.4043716 L10.3935002,36.7117004 Z M33.8379907,26.9735632 L14.1122551,26.9735632 L14.1122551,15.0103952 L33.8560702,15.0103952 L33.8560702,26.9735632 L33.8379907,26.9735632 Z M20.8651312,18.7358332 C20.8289721,18.6998922 20.8470516,18.6459806 20.8102899,18.6100395 C20.6258787,18.4303343 20.3685468,18.3584522 20.1112148,18.3584521 C19.8520179,18.3338256 19.595393,18.4261813 19.4121398,18.6100395 C19.3747754,18.6459806 19.3934576,18.6998922 19.3560932,18.7358332 L15.5654189,22.4257817 C15.3892675,22.5920341 15.2895239,22.8228885 15.2895239,23.0643345 C15.2895239,23.3057805 15.3892675,23.5366348 15.5654189,23.7028873 C15.933036,24.0449263 16.5224286,24.0449263 16.8719661,23.7028873 L20.1106122,20.5538517 L23.3492583,23.7028873 C23.7168753,24.0449263 24.2881884,24.0449263 24.6558055,23.7028873 C25.005343,23.3434767 25.005343,22.7672217 24.6558055,22.4251827 L20.8651312,18.7358332 Z M32.3661214,16.720738 C32.3112802,16.6668264 32.2371541,16.6847969 32.1636307,16.6488559 C32.0901073,16.6129148 32.035266,16.5949443 31.96114,16.5590032 C31.869537,16.5404337 31.7960136,16.5050916 31.703808,16.5050917 C31.6857285,16.5050917 31.6670463,16.5050917 31.6483641,16.5224632 C31.6302846,16.5224632 31.6122051,16.5044926 31.5748407,16.5044926 L27.8576898,16.5044926 C27.3243438,16.5044926 26.9012828,16.9178148 26.9012828,17.4401581 C26.9012828,17.9619025 27.4165493,18.3219121 28.8333817,18.3764227 L29.3667277,18.3764227 L25.2265159,22.4078112 C25.0503645,22.5740636 24.9506209,22.8049179 24.9506209,23.046364 C24.9506209,23.28781 25.0503645,23.5186643 25.2265159,23.6849167 C25.594133,24.0269558 26.1835256,24.0269558 26.5330631,23.6849167 L30.7654805,19.5816461 L30.7654805,21.1834192 C30.7654805,21.7051635 31.1885415,22.1190847 31.7218876,22.1190847 C32.2558363,22.1190847 32.6788972,21.7057625 32.6788972,21.1834192 L32.6788972,17.4581287 C32.6788972,17.332335 32.6608177,17.2245118 32.6053738,17.1166886 C32.5692147,17.026836 32.5131682,16.9549539 32.458327,16.8824727 C32.4215653,16.8465317 32.4215653,16.8285611 32.4028831,16.8105906 C32.3848036,16.7746496 32.3848036,16.7387085 32.3661214,16.720738 Z M14.1122551,30.5897797 L26.8826006,30.5897797 L26.8826006,28.5406364 L14.1122551,28.5406364 L14.1122551,30.5897797 Z M32.6608177,34.5309956 L14.1122551,34.5309956 L14.1122551,32.375906 L32.6788972,32.375906 L32.6788972,34.5309956 L32.6608177,34.5309956 Z" id="形状" fill="#04549E" fill-rule="nonzero"></path>
                </g>
            </g>
        </g>
    </g>
</svg>