<?xml version="1.0" encoding="UTF-8"?>
<svg width="49px" height="48px" viewBox="0 0 49 48" version="1.1" xmlns="http://www.w3.org/2000/svg" xmlns:xlink="http://www.w3.org/1999/xlink">
    <!-- Generator: Sketch 64 (93537) - https://sketch.com -->
    <title>icon_home_hudong_weixinguanzhu</title>
    <desc>Created with Sketch.</desc>
    <g id="首页+互动交流" stroke="none" stroke-width="1" fill="none" fill-rule="evenodd">
        <g id="首页" transform="translate(-251.000000, -2751.000000)">
            <g id="编组-21" transform="translate(16.000000, 2736.000000)">
                <g id="icon_home_hudong_zixunfuwu" transform="translate(235.000000, 15.000000)">
                    <rect id="矩形" fill="#D8D8D8" opacity="0" x="0.5" y="0" width="48" height="48"></rect>
                    <g id="微信" transform="translate(9.000000, 9.000000)" fill-rule="nonzero">
                        <rect id="矩形" fill="#000000" opacity="0" x="0" y="0" width="32" height="32"></rect>
                        <path d="M28.23,24.4 C28.4688144,24.6052476 28.7795523,24.7069077 29.0935,24.6825 C29.4092389,24.652252 29.7044523,24.5125165 29.928,24.2875 C31.2149984,22.9474562 31.954109,21.1744112 32,19.317 C32,15.139 28.2,11.4125 23.338,10.7915 C22.1585,6.2745 17.266,3 11.6835,3 C5.2375,3 0,7.4605 0,12.909 C0.0149858988,15.1861071 0.924567558,17.3660502 2.5325,18.9785 C2.76284985,19.2239555 3.08810929,19.3577787 3.4245,19.3455 C3.89421846,19.3498309 4.32114423,19.0732875 4.50924138,18.6428533 C4.69733854,18.212419 4.61026373,17.7112606 4.288,17.3695 C3.09869466,16.1863318 2.41716199,14.5863442 2.388,12.909 C2.388,8.731 6.532,5.3435 11.654,5.3435 C15.769,5.3435 19.5675,7.602 20.7765,10.7355 C15.712,11.2155 11.7695,14.942 11.7695,19.3175 C11.7696917,19.6954812 11.7986083,20.0729013 11.856,20.4465 L11.656,20.4465 C10.7060108,20.4198083 9.76117713,20.2968459 8.836,20.0795 C8.636,20.0515 8.433,19.995 8.2315,19.9665 C7.96755405,19.9039872 7.68970616,19.9443949 7.4545,20.0795 L3.8,21.886 C3.51371501,22.0186946 3.29353474,22.2618868 3.18985796,22.5599104 C3.08618118,22.8579341 3.10788447,23.1852729 3.25,23.467 C3.45305846,23.8678185 3.86518704,24.1194706 4.3145,24.117 C4.50142547,24.106647 4.68577355,24.0685642 4.8615,24.004 L8.142,22.395 L8.342,22.423 C9.42616338,22.6858355 10.5360873,22.8278669 11.6515,22.8465 C11.9395,22.8465 12.256,22.8465 12.6015,22.8185 C13.1356621,23.8550696 13.869182,24.7760049 14.76,25.5285 C16.7693097,27.1530385 19.2843901,28.0220646 21.868,27.9845 C22.8704805,27.9540099 23.8656429,27.8029224 24.832,27.5345 L27.278,28.8615 C27.4567902,28.951177 27.6535047,28.9993729 27.8535,29.0025 C28.2942999,29.0019186 28.7008856,28.7648391 28.9185,28.3815 C29.07338,28.1045696 29.1087662,27.7764962 29.0165012,27.4729086 C28.9242362,27.169321 28.7122823,26.9164181 28.4295,26.7725 L25.552,25.22 C25.285645,25.0844144 24.9807746,25.0445183 24.6885,25.107 C23.7612063,25.3807976 22.8043209,25.5419573 21.8385,25.587 C17.666,25.559 14.2125,22.764 14.2125,19.2915 C14.2125,15.819 17.6655,13.0245 21.9245,13.0245 C26.097,13.0245 29.608,15.904 29.608,19.2915 C29.5578598,20.5863529 29.0238534,21.8152993 28.1115,22.7355 C27.6846076,23.2278698 27.7376605,23.9730727 28.23,24.4 L28.23,24.4 Z M6.655,9.8665 C6.655,10.7153617 7.34313834,11.4035 8.192,11.4035 C9.04086166,11.4035 9.729,10.7153617 9.729,9.8665 C9.729,9.01763834 9.04086166,8.3295 8.192,8.3295 C7.34313834,8.3295 6.655,9.01763834 6.655,9.8665 Z M13.944,9.8665 C13.944,10.7153617 14.6321383,11.4035 15.481,11.4035 C16.3298617,11.4035 17.018,10.7153617 17.018,9.8665 C17.018,9.01763834 16.3298617,8.3295 15.481,8.3295 C14.6321383,8.3295 13.944,9.01763834 13.944,9.8665 L13.944,9.8665 Z M17.488,17.17 C17.488,17.7191172 17.7809505,18.2265225 18.2565,18.5010811 C18.7320494,18.7756397 19.3179506,18.7756397 19.7935,18.5010811 C20.2690495,18.2265225 20.562,17.7191172 20.562,17.17 C20.562,16.6208828 20.2690495,16.1134775 19.7935,15.8389189 C19.3179506,15.5643603 18.7320494,15.5643603 18.2565,15.8389189 C17.7809505,16.1134775 17.488,16.6208828 17.488,17.17 Z M23.394,17.17 C23.394,18.0188617 24.0821383,18.707 24.931,18.707 C25.7798617,18.707 26.468,18.0188617 26.468,17.17 C26.468,16.3211383 25.7798617,15.633 24.931,15.633 C24.0821383,15.633 23.394,16.3211383 23.394,17.17 L23.394,17.17 Z" id="形状" fill="#04549E"></path>
                    </g>
                </g>
            </g>
        </g>
    </g>
</svg>