<?xml version="1.0" encoding="UTF-8"?>
<svg width="48px" height="48px" viewBox="0 0 48 48" version="1.1" xmlns="http://www.w3.org/2000/svg" xmlns:xlink="http://www.w3.org/1999/xlink">
    <!-- Generator: Sketch 64 (93537) - https://sketch.com -->
    <title>icon_home_hudong_woyaoliuyan</title>
    <desc>Created with Sketch.</desc>
    <g id="首页+互动交流" stroke="none" stroke-width="1" fill="none" fill-rule="evenodd">
        <g id="首页" transform="translate(-75.000000, -2863.000000)">
            <g id="编组-21" transform="translate(16.000000, 2736.000000)">
                <g id="icon_home_hudong_zaixianwenda" transform="translate(59.000000, 127.000000)">
                    <rect id="矩形" fill="#D8D8D8" opacity="0" x="0" y="0" width="48" height="48"></rect>
                    <g id="留言" transform="translate(8.000000, 8.000000)" fill-rule="nonzero">
                        <rect id="矩形" fill="#FFFFFF" opacity="0" x="0" y="0" width="32" height="32"></rect>
                        <path d="M27.8589994,15.1951455 C26.8596795,15.2335177 26.3636946,15.9946505 26.3547346,17.5907879 C26.3402096,20.1768023 26.3636246,22.7631712 26.3453196,25.3491856 C26.3310046,27.3668151 25.9383047,27.7857183 23.923985,27.7948681 C18.8194457,27.8179907 13.7147664,27.8166785 8.61022712,27.7959674 C6.50046243,27.7873496 6.14307747,27.3992648 6.13961248,25.2210534 C6.12977748,19.0395716 6.13590249,12.8579834 6.13695249,6.67650163 C6.13698748,6.36126031 6.13219248,6.04460043 6.1569025,5.73091955 C6.23278249,4.76852744 6.76278743,4.23954334 7.70376229,4.16457202 C8.19901223,4.1251713 8.69919717,4.14570506 9.19714209,4.14542136 C12.6832116,4.14329353 16.1693861,4.16077738 19.6552806,4.13286705 C20.9488104,4.12251152 21.5916903,3.58015742 21.6340403,2.62148905 C21.6780353,1.62412923 21.0668654,1.0349624 19.7753656,1.02730214 C15.4180412,1.00130689 11.0596668,0.974034897 6.70328742,1.04709117 C4.62026273,1.08191703 3.26810789,2.50559205 3.05502793,4.62383353 C2.99843294,5.18668593 3.01222295,5.75773054 3.01159293,6.32501596 C3.00798792,9.5419385 3.00984295,12.7588965 3.00984295,15.9757836 C3.01085795,15.9757836 3.01180294,15.9757836 3.01274793,15.9757836 C3.01274793,19.5081602 2.97781792,23.040856 3.02359793,26.5725233 C3.06160794,29.506016 4.53276272,30.9649069 7.4544223,30.9788799 C13.3058965,31.0067192 19.1576857,31.0072512 25.0091598,30.979199 C27.9351944,30.9652261 29.4016942,29.4993842 29.4385842,26.5785877 C29.4768042,23.5514342 29.4615442,20.5232167 29.4421542,17.495673 C29.4320042,15.9142177 28.8813493,15.155922 27.8589994,15.1951455 Z M30.4687391,2.92832534 C29.8626442,2.43452174 29.1985192,2.43214566 28.5722643,2.86626298 C28.2172244,3.1124555 27.9202145,3.44890441 27.6125995,3.76038651 C22.1516902,9.28922054 16.691096,14.8184801 11.2385167,20.3557547 C10.8466918,20.7536631 10.4267268,21.1668919 10.1775619,21.6556951 C9.68000194,22.6319183 10.4112218,23.7718796 11.8435966,23.829048 C12.1988466,23.5602647 12.8354615,23.1883516 13.3389364,22.6810007 C18.8566157,17.1203908 24.3540299,11.539247 29.8543841,5.96111772 C30.1617541,5.64938738 30.4970891,5.34772884 30.729664,4.98262486 C31.178364,4.27834122 31.052959,3.4043259 30.4687391,2.92832534 Z" id="形状" fill="#04549E"></path>
                    </g>
                </g>
            </g>
        </g>
    </g>
</svg>