<?xml version="1.0" encoding="UTF-8"?>
<svg width="48px" height="48px" viewBox="0 0 48 48" version="1.1" xmlns="http://www.w3.org/2000/svg" xmlns:xlink="http://www.w3.org/1999/xlink">
    <!-- Generator: Sketch 64 (93537) - https://sketch.com -->
    <title>icon_home_hudong_zhinengwenda</title>
    <desc>Created with Sketch.</desc>
    <g id="首页+互动交流" stroke="none" stroke-width="1" fill="none" fill-rule="evenodd">
        <g id="首页" transform="translate(-251.000000, -2863.000000)">
            <g id="编组-21" transform="translate(16.000000, 2736.000000)">
                <g id="icon_home_hudong_jubaotousu" transform="translate(235.000000, 127.000000)">
                    <rect id="矩形" fill="#D8D8D8" opacity="0" x="0" y="0" width="48" height="48"></rect>
                    <path d="M27.6233244,10 L10.5165326,10 C8.02479893,10 6,12.0638383 6,14.6132855 L6,26.9226066 C6,28.7609836 7.46023235,30.2524969 9.26005362,30.2524969 L12.6432082,30.2524969 C12.6516979,30.2655043 12.6601877,30.2741759 12.6686774,30.2871833 L11.2933423,35.360063 L11.2933423,35.3687346 C11.1957105,35.7112624 11.1829759,36.0884765 11.6201966,36.5697498 C11.8324397,36.8038827 12.1210903,36.9816503 12.4309651,36.9989934 C12.6432082,37.007665 12.8427167,36.9599713 13.0252458,36.8689196 C13.0337355,36.8645838 13.0379803,36.8645838 13.0464701,36.860248 L19.4859249,33.7601548 C20.1099196,33.4523134 20.3773458,32.6892135 20.0759607,32.0475159 C19.7745755,31.4101541 19.0274799,31.136999 18.3992404,31.4448405 L14.5024576,33.3005606 C14.4812332,33.3092322 14.4600089,33.291889 14.4642538,33.27021 L15.4787757,29.5284192 C15.5594281,29.2335852 15.5254692,28.9387511 15.4151028,28.6786035 C15.2580429,28.223345 14.8335567,27.8938246 14.3326631,27.8938246 L9.80764075,27.8938246 C8.98413762,27.8938246 8.31344951,27.2131049 8.31344951,26.3676249 L8.31344951,14.7867173 C8.31344951,13.442621 9.37890974,12.3543365 10.6948168,12.3543365 L27.6233244,12.3543365 C28.2600536,12.3543365 28.7779267,11.8253696 28.7737078,11.1750004 C28.7737078,10.5246312 28.2600536,10 27.6233244,10 L27.6233244,10 Z M13.1865505,21.5202064 C12.5498213,21.5202064 12.0319482,22.0491734 12.0319482,22.6995426 C12.0319482,23.3499118 12.5498213,23.8788787 13.1865505,23.8788787 L17.7455317,23.8788787 C18.3822609,23.8788787 18.900134,23.3499118 18.900134,22.6995426 C18.900134,22.0491734 18.3822609,21.5202064 17.7455317,21.5202064 L13.1865505,21.5202064 Z M20.5895889,15.7969575 L13.1865505,15.7969575 C12.5498213,15.7969575 12.0319482,16.3259244 12.0319482,16.9762936 C12.0319482,17.6266628 12.5498213,18.1556298 13.1865505,18.1556298 L20.5895889,18.1556298 C21.2263181,18.1556298 21.7441912,17.6266628 21.7441912,16.9762936 C21.7441912,16.3259244 21.230563,15.7969575 20.5895889,15.7969575 Z M32.5473637,36.9946576 C26.2310098,36.9946576 21.0904826,31.7440103 21.0904826,25.2923478 C21.0904826,18.8406853 26.2310098,13.590038 32.5473637,13.590038 C38.8637176,13.590038 44,18.8450211 44,25.2966836 C44,31.7483461 38.8637176,36.9946576 32.5473637,36.9946576 Z M32.5473637,15.4847803 C27.2497766,15.4847803 22.9412422,19.8856119 22.9412422,25.2966836 C22.9412422,30.7077554 27.2497766,35.108587 32.5473637,35.108587 C37.8449508,35.108587 42.1534853,30.7077554 42.1534853,25.2966836 C42.1534853,19.8856119 37.8449508,15.4847803 32.5473637,15.4847803 Z M26.37958,22.226941 L26.5154155,22.1749114 C26.9483914,22.0058155 27.4323056,22.2226052 27.5978552,22.6648562 L30.7730116,31.0719621 C30.9385612,31.5142132 30.7263181,32.0084938 30.2933423,32.1775898 L30.1575067,32.2296193 C29.7245308,32.3987153 29.2406166,32.1819255 29.075067,31.7396745 L25.8999106,23.3325686 C25.734361,22.8903176 25.9466041,22.396037 26.37958,22.226941 L26.37958,22.226941 Z M27.4153262,20.0980658 C27.7209562,19.8205749 28.1836461,19.798896 28.4977659,20.0677152 C28.8373548,20.3538777 29.1726988,20.6487117 29.5122878,20.9608889 C29.8815907,21.3034167 29.8858356,21.9017564 29.5122878,22.2399484 L29.4571046,22.2876421 C29.1260054,22.5911477 28.6208668,22.5694688 28.3067471,22.24862 C28.0096068,21.9494501 27.7124665,21.6502803 27.4068365,21.3554462 C27.0460232,21.0172543 27.0502681,20.4362578 27.4153262,20.0980658 L27.4153262,20.0980658 Z M29.932529,23.1114431 L33.366622,21.7586752 C33.7995979,21.5895792 34.2835121,21.8063689 34.4490617,22.24862 L35.7989276,25.8256506 C35.9644772,26.2679016 35.7522341,26.7621822 35.3192583,26.9312782 L32.967605,27.8591383 C32.7680965,27.9371826 32.6662198,28.1669797 32.7426273,28.3750978 C32.8190349,28.5788802 32.721403,28.8086773 32.5176497,28.8910574 L32.1610813,29.0298028 C31.7281055,29.1988988 31.2441912,28.9821091 31.0786416,28.539858 L29.4486148,24.2214065 C29.2873101,23.7748197 29.503798,23.2805391 29.932529,23.1114431 L29.932529,23.1114431 Z M39.1184093,26.0814624 C39.3943253,26.8142117 39.4664879,27.4125514 39.3221626,27.8764814 C39.1820822,28.3360757 38.8722073,28.7002824 38.392538,28.9647659 C37.9892761,29.1858914 37.2761394,29.5067402 36.2446381,29.9229765 C35.87958,30.0703935 35.4593387,29.9403197 35.2386059,29.6107993 C35.2216265,29.5847845 35.204647,29.5587698 35.1876676,29.5370908 C34.8735478,29.0731608 35.081546,28.4271274 35.603664,28.2406882 C36.0366399,28.0845996 36.3465147,27.9718689 36.5375335,27.8981604 C37.2973637,27.5989906 37.5435657,27.1003742 37.2761394,26.3979755 L35.0603217,20.5359811 C34.8947721,20.09373 34.4108579,19.8769403 33.977882,20.0460363 L31.282395,21.108306 C30.8494191,21.2774019 30.3655049,21.0606122 30.1999553,20.6183612 L30.1957105,20.6096896 C30.0301609,20.1674385 30.2424039,19.6731579 30.6753798,19.5040619 L35.0688114,17.7740798 C35.5017873,17.6049839 35.9857015,17.8217736 36.1512511,18.2640246 L39.1184093,26.0814624 L39.1184093,26.0814624 Z M33.7104558,24.8587683 L33.5364164,24.3948383 C33.3708668,23.9525873 32.8869526,23.7357975 32.4539768,23.9048935 L32.0252458,24.0739895 C31.5922699,24.2430855 31.3800268,24.7373661 31.5455764,25.1796172 L31.7196157,25.6435472 C31.8851653,26.0857982 32.3690795,26.302588 32.8020554,26.133492 L33.2307864,25.964396 C33.6637623,25.7953 33.8760054,25.3010194 33.7104558,24.8587683 Z" id="形状" fill="#04549E" fill-rule="nonzero"></path>
                </g>
            </g>
        </g>
    </g>
</svg>