<?xml version="1.0" encoding="UTF-8"?>
<svg width="51px" height="51px" viewBox="0 0 51 51" version="1.1" xmlns="http://www.w3.org/2000/svg" xmlns:xlink="http://www.w3.org/1999/xlink">
    <!-- Generator: Sketch 61 (89581) - https://sketch.com -->
    <title>icon_tijiaowancheng</title>
    <desc>Created with Sketch.</desc>
    <g id="首页+互动交流" stroke="none" stroke-width="1" fill="none" fill-rule="evenodd">
        <g id="结果页" transform="translate(-163.000000, -278.000000)">
            <g id="icon_tijiaowancheng" transform="translate(163.000000, 278.000000)">
                <path d="M25.5,0 C11.4167389,0 0,11.4167389 0,25.5 C0,39.5832611 11.4167389,51 25.5,51 C39.5832611,51 51,39.5832611 51,25.5 C51,11.4167389 39.5832611,0 25.5,0 Z M25.5,4 C37.3741221,4 47,13.6258779 47,25.5 C47,37.3741221 37.3741221,47 25.5,47 C13.6258779,47 4,37.3741221 4,25.5 C4,13.6258779 13.6258779,4 25.5,4 Z" id="椭圆形" fill="#225299" fill-rule="nonzero"></path>
                <polyline id="路径" stroke="#225299" stroke-width="4" stroke-linecap="round" stroke-linejoin="round" points="17 26.5641326 25.0014881 34.5656206 38.5671087 21"></polyline>
            </g>
        </g>
    </g>
</svg>