<?xml version="1.0" encoding="UTF-8"?>
<svg width="30px" height="30px" viewBox="0 0 30 30" version="1.1" xmlns="http://www.w3.org/2000/svg" xmlns:xlink="http://www.w3.org/1999/xlink">
    <!-- Generator: Sketch 61 (89581) - https://sketch.com -->
    <title>icon_share_weibo</title>
    <desc>Created with Sketch.</desc>
    <g id="首页+互动交流" stroke="none" stroke-width="1" fill="none" fill-rule="evenodd">
        <g id="文章详情" transform="translate(-221.000000, -1392.000000)" fill="#EB5039" fill-rule="nonzero">
            <g id="icon_weibo" transform="translate(221.000000, 1392.000000)">
                <path d="M11.968614,17.6835857 C11.445571,17.4651782 10.7699774,17.69025 10.4476481,18.1940859 C10.1210409,18.7003082 10.2743481,19.3029732 10.7930841,19.538638 C11.320114,19.7782023 12.0192217,19.5507733 12.3454506,19.0316299 C12.6665867,18.5069863 12.4975937,17.9082501 11.9686431,17.6835857 L11.968614,17.6835857 Z M13.2570872,17.1510847 C13.0567227,17.0718992 12.8057797,17.1679636 12.688151,17.3643994 C12.5740727,17.5619992 12.637165,17.7871001 12.8379369,17.8698359 C13.0422301,17.9537359 13.3037662,17.8565074 13.4213949,17.6553572 C13.5343091,17.4533921 13.460973,17.2255848 13.2570872,17.1510847 L13.2570872,17.1510847 Z M12.441515,13.6578162 C9.0666609,13.9907385 6.50700079,16.0504623 6.72657235,18.2580222 C6.94576558,20.4671244 9.85950483,21.987712 13.2351446,21.6556337 C16.6107844,21.3227114 19.1696588,19.2629876 18.9504656,17.0534488 C18.7316798,14.8459181 15.8179405,13.3253305 12.441515,13.6578162 L12.441515,13.6578162 Z M15.4034756,18.8665657 C14.7145534,20.4193105 12.732822,21.2470472 11.0519137,20.7067179 C9.42935411,20.1848098 8.74200348,18.5877724 9.45289731,17.1491349 C10.1500552,15.738726 11.9658785,14.9411967 13.5719374,15.3576114 C15.23489,15.7857832 16.0834053,17.3487427 15.4034756,18.8665657 Z M14.9000179,0 C6.67127931,0 -3.41949089e-15,6.67090099 -3.41949089e-15,14.9000179 C-3.41949089e-15,23.1287565 6.67127931,29.8000358 14.9000179,29.8000358 C23.1291348,29.8000358 29.8000358,23.1287565 29.8000358,14.9000179 C29.8000358,6.67090099 23.1291348,0 14.9000179,0 Z M13.2567089,23.1350134 C9.02667531,23.1350134 4.70252714,21.0921394 4.70252714,17.7318071 C4.70252714,15.9751764 5.81962106,13.9432738 7.74291654,12.0258568 C10.3111907,9.46701158 13.3060943,8.30125979 14.4326172,9.42426133 C14.929818,9.9191049 14.9780393,10.7762342 14.6584747,11.7996501 C14.4918389,12.3144574 15.143511,12.0294072 15.143511,12.0306004 C17.2197063,11.1644205 19.0304659,11.1134636 19.6927309,12.055686 C20.0460243,12.5575721 20.0115098,13.2625874 19.686445,14.078538 C19.5358733,14.4545889 19.7327165,14.5130249 20.0201239,14.5988746 C21.189397,14.9604037 22.4915771,15.834412 22.4915771,17.374585 C22.4907913,19.9240595 18.8022511,23.1350134 13.2567089,23.1350134 Z M20.9145033,12.4497507 C21.0517755,12.0290289 20.9658967,11.548678 20.6467104,11.1965777 C20.3279315,10.8452632 19.8570094,10.7115414 19.4233374,10.8028913 L19.4233374,10.8021347 C19.0606442,10.8805344 18.7038295,10.6487984 18.6261865,10.2880841 C18.5485725,9.92536174 18.7799011,9.5693328 19.1425943,9.49247548 C20.0311243,9.30427545 20.9933395,9.57797597 21.6450407,10.2990554 C22.2982551,11.0197273 22.4731557,12.0012078 22.1935767,12.8618584 C22.0798768,13.2139878 21.700712,13.4068732 21.347797,13.293959 C20.9945036,13.1798516 20.8012108,12.8014726 20.9149107,12.450129 L20.9145324,12.450129 L20.9145033,12.4497507 Z M24.8312873,13.710752 C24.8308799,13.7111595 24.8308799,13.7131093 24.8308799,13.713895 C24.6979438,14.122074 24.2572292,14.3455743 23.847857,14.213453 C23.4365641,14.0808953 23.2118707,13.6433236 23.3443994,13.2335731 L23.3443994,13.2331657 C23.7518217,11.9768498 23.4933995,10.5433051 22.5421556,9.49168974 C21.590126,8.44048183 20.1863813,8.03893799 18.8897014,8.31342426 C18.4681939,8.40323179 18.0529432,8.13503146 17.9631357,7.71468799 C17.8729498,7.29550858 18.1419359,6.88145105 18.5638508,6.79167262 L18.5646366,6.79167262 C20.3871532,6.40543622 22.3629771,6.96968709 23.7024072,8.44947422 C25.0414299,9.92696233 25.4025807,11.9427427 24.8312582,13.710752 L24.8312873,13.710752 Z" id="形状"></path>
            </g>
        </g>
    </g>
</svg>