<?xml version="1.0" encoding="UTF-8"?>
<svg width="30px" height="30px" viewBox="0 0 30 30" version="1.1" xmlns="http://www.w3.org/2000/svg" xmlns:xlink="http://www.w3.org/1999/xlink">
    <!-- Generator: Sketch 61 (89581) - https://sketch.com -->
    <title>icon_share_qq</title>
    <desc>Created with Sketch.</desc>
    <g id="首页+互动交流" stroke="none" stroke-width="1" fill="none" fill-rule="evenodd">
        <g id="文章详情" transform="translate(-329.000000, -1392.000000)" fill="#1298E0" fill-rule="nonzero">
            <g id="icon_qq" transform="translate(329.000000, 1392.000000)">
                <path d="M14.9001195,0 C6.67397092,0 0.00312812864,6.67084279 0.00312812864,14.8969914 C0.00312812864,23.1231399 6.67397092,29.8000358 14.9001195,29.8000358 C23.126268,29.8000358 29.7971108,23.1291931 29.7971108,14.9030445 C29.7971108,6.67689592 23.1278104,0 14.9001195,0 Z M21.8842119,18.6090747 C21.2386977,18.6702087 21.1316155,17.7414251 20.6979813,17.4634758 C20.5149587,18.3652994 20.080943,19.0092944 19.464286,19.4835603 C20.0406926,19.9240304 21.0970602,20.0664216 21.0439003,21.0225459 C20.9827663,22.1818167 18.8745887,22.4935618 17.3492779,22.3853417 C16.2306387,22.3040827 15.5646166,21.8974068 14.9289737,21.4633943 C14.576597,21.5921177 14.2105542,21.9243695 13.8308366,22.0804326 C12.2717272,22.7259468 8.86834486,22.4669833 8.73278962,21.0703918 C8.63786079,20.0804748 9.75802144,19.9042879 10.3598687,19.4907775 C9.73599735,19.0434743 9.26856749,18.446941 9.12617338,17.5113217 C8.67051512,17.6332103 8.57027175,18.6299609 7.93994279,18.6094589 C7.26860677,18.5889543 7.16722262,17.1991984 7.23481108,16.3247128 C7.33657471,14.9824191 8.31282156,13.9385826 8.81442543,13.2467533 C8.78746565,12.4873238 8.8413852,11.8038349 9.16680212,11.4028557 C9.18047187,9.44352659 9.8582619,8.29108005 10.8345099,7.31483786 C11.8244269,6.32492083 13.3292385,5.57270565 14.8344372,5.55903663 C16.6308701,5.53853202 18.0411422,6.41339551 18.922455,7.27420912 C19.7088442,8.04692929 20.2241171,8.86901158 20.4614406,10.0875188 C20.5373835,10.4535645 20.4884004,10.9008677 20.5901639,11.3618428 C20.6307935,11.5517004 20.8343208,11.7552265 20.8939351,12.0195098 C20.9751941,12.3585958 20.8533055,12.7789393 20.9345648,13.1651087 C20.9956988,13.45673 21.2668148,13.6735486 21.4160449,13.8702404 C21.8500603,14.4261421 22.4260856,15.3412563 22.514182,16.2024512 C22.6429054,17.1517395 22.5005123,18.5566831 21.883856,18.6090864 L21.8842119,18.6090747 Z" id="形状"></path>
            </g>
        </g>
    </g>
</svg>