<?xml version="1.0" encoding="UTF-8"?>
<svg width="30px" height="30px" viewBox="0 0 30 30" version="1.1" xmlns="http://www.w3.org/2000/svg" xmlns:xlink="http://www.w3.org/1999/xlink">
    <!-- Generator: Sketch 61 (89581) - https://sketch.com -->
    <title>icon_share_weixin</title>
    <desc>Created with Sketch.</desc>
    <g id="首页+互动交流" stroke="none" stroke-width="1" fill="none" fill-rule="evenodd">
        <g id="文章详情" transform="translate(-275.000000, -1392.000000)" fill="#0BBF17" fill-rule="nonzero">
            <g id="icon_weixin" transform="translate(275.000000, 1392.000000)">
                <path d="M16.8733338,14.8963629 C16.5338117,14.8963629 16.194115,15.211702 16.194115,15.5998811 C16.194115,15.9152493 16.5336371,16.2306466 16.8733338,16.2306466 C17.3829807,16.2306466 17.7468604,15.9152493 17.7468604,15.5998811 C17.7468604,15.2117311 17.3829807,14.8963629 16.8733629,14.8963629 L16.8733338,14.8963629 Z M14.6412823,11.6208345 C15.175054,11.6208345 15.5147798,11.2812833 15.5147798,10.7716073 C15.5147798,10.2378356 15.1750831,9.92246735 14.6412823,9.92246735 C14.1317809,9.92246735 13.6464915,10.2378647 13.6464915,10.7716364 C13.6464915,11.2813124 14.1317809,11.6208054 14.6412823,11.6208054 L14.6412823,11.6208345 Z M14.9081099,0.0168437696 C6.68368386,0.0168437696 0.016542988,6.68398464 0.016542988,14.9084689 C0.016542988,23.132895 6.68365476,29.8000358 14.9081099,29.8000358 C23.132536,29.8000358 29.799706,23.132895 29.799706,14.9084689 C29.799706,6.68398464 23.1325651,0.0168437696 14.9081099,0.0168437696 L14.9081099,0.0168437696 Z M12.0937461,18.681218 C11.1959201,18.681218 10.5408552,18.5357418 9.69165705,18.293039 L7.24117293,19.5305617 L7.94489483,17.4438699 C6.2222574,16.2308503 5.20310907,14.7022588 5.20310907,12.8340287 C5.20310907,9.53431737 8.30874543,7.01099329 12.0937752,7.01099329 C15.4419398,7.01099329 18.426283,9.00057477 19.008537,11.8151132 C18.7659506,11.7664562 18.547518,11.7423314 18.3534721,11.7423314 C15.0537316,11.7423314 12.5062537,14.2170276 12.5062537,17.2013708 C12.5062537,17.710814 12.5790354,18.1717748 12.7003578,18.6571224 C12.5062537,18.6812471 12.2878211,18.6812471 12.093717,18.6812471 L12.0937461,18.681218 Z M22.2112254,21.0589495 L22.6963984,22.8059445 L20.8524677,21.7626714 C20.1489204,21.9081476 19.4694979,22.1265511 18.7659215,22.1265511 C15.5147216,22.1265511 12.9429151,19.8944414 12.9429151,17.1285308 C12.9429151,14.3626203 15.5147507,12.1304814 18.7659506,12.1304814 C21.8472293,12.1304814 24.6131399,14.3626203 24.6131399,17.1285308 C24.6131399,18.681218 23.5698668,20.0641879 22.2112254,21.0589204 L22.2112254,21.0589495 Z M9.83727877,9.92246735 C9.32777736,9.92246735 8.79400566,10.2378647 8.79400566,10.7716364 C8.79400566,11.2812833 9.32777736,11.62098 9.83727877,11.62098 C10.3225972,11.62098 10.7107763,11.2812833 10.7107763,10.7716073 C10.7107763,10.2378647 10.3225681,9.92246735 9.83727877,9.92246735 Z M20.6826921,14.8963629 C20.318696,14.8963629 20.0032987,15.211702 20.0032987,15.5998811 C20.0032987,15.9152493 20.318696,16.2306466 20.6826921,16.2306466 C21.167865,16.2306466 21.5318611,15.9152493 21.5318611,15.5998811 C21.5318611,15.2117311 21.167865,14.8963629 20.6826921,14.8963629 L20.6826921,14.8963629 Z" id="形状"></path>
            </g>
        </g>
    </g>
</svg>