<?xml version="1.0" encoding="UTF-8"?>
<svg width="77px" height="74px" viewBox="0 0 77 74" version="1.1" xmlns="http://www.w3.org/2000/svg" xmlns:xlink="http://www.w3.org/1999/xlink">
    <!-- Generator: Sketch 64 (93537) - https://sketch.com -->
    <title>butt_home_zhuanti</title>
    <desc>Created with Sketch.</desc>
    <defs>
        <rect id="path-1" x="0.399999976" y="0" width="76" height="70.3999958"></rect>
        <linearGradient x1="50%" y1="1.93728885%" x2="50%" y2="100%" id="linearGradient-3">
            <stop stop-color="#235399" offset="0%"></stop>
            <stop stop-color="#4D7DC3" offset="100%"></stop>
        </linearGradient>
        <rect id="path-4" x="0.399999976" y="15.999999" width="75.3999937" height="35.1999979"></rect>
        <filter x="-45.1%" y="-90.9%" width="190.2%" height="293.2%" filterUnits="objectBoundingBox" id="filter-5">
            <feOffset dx="0" dy="2" in="SourceAlpha" result="shadowOffsetOuter1"></feOffset>
            <feGaussianBlur stdDeviation="11" in="shadowOffsetOuter1" result="shadowBlurOuter1"></feGaussianBlur>
            <feComposite in="shadowBlurOuter1" in2="SourceAlpha" operator="out" result="shadowBlurOuter1"></feComposite>
            <feColorMatrix values="0 0 0 0 0.0653865292   0 0 0 0 0.194785303   0 0 0 0 0.383491848  0 0 0 0.158735795 0" type="matrix" in="shadowBlurOuter1"></feColorMatrix>
        </filter>
    </defs>
    <g id="首页+互动交流" stroke="none" stroke-width="1" fill="none" fill-rule="evenodd">
        <g id="首页" transform="translate(-16.000000, -688.000000)">
            <g id="编组-24" transform="translate(16.000000, 688.000000)">
                <g id="编组-23">
                    <g id="butt_home_zhuanti" transform="translate(0.400000, 2.200000)">
                        <mask id="mask-2" fill="white">
                            <use xlink:href="#path-1"></use>
                        </mask>
                        <use id="蒙版" fill="#D8D8D8" opacity="0" xlink:href="#path-1"></use>
                        <g id="矩形备份-3" mask="url(#mask-2)">
                            <use fill="black" fill-opacity="1" filter="url(#filter-5)" xlink:href="#path-4"></use>
                            <rect stroke-opacity="0.363417832" stroke="#FFFFFF" stroke-width="1" stroke-linejoin="square" fill="url(#linearGradient-3)" fill-rule="evenodd" x="0.899999976" y="16.499999" width="74.3999937" height="34.1999979"></rect>
                        </g>
                        <rect id="矩形" fill-opacity="0.41" fill="#FFFFFF" mask="url(#mask-2)" x="0.399999976" y="18.3999989" width="75.3999937" height="1"></rect>
                        <polygon id="矩形备份-8" fill-opacity="0.41" fill="#FFFFFF" mask="url(#mask-2)" transform="translate(3.200000, 33.599998) rotate(-270.000000) translate(-3.200000, -33.599998) " points="-14.3999991 33.199998 20.7999988 33.199998 20.7999988 33.999998 -14.3999991 33.999998"></polygon>
                        <polygon id="矩形备份-9" fill-opacity="0.41" fill="#FFFFFF" mask="url(#mask-2)" transform="translate(72.999994, 33.599998) rotate(-270.000000) translate(-72.999994, -33.599998) " points="55.3999949 33.199998 90.5999928 33.199998 90.5999928 33.999998 55.3999949 33.999998"></polygon>
                        <rect id="矩形备份-7" fill-opacity="0.41" fill="#FFFFFF" mask="url(#mask-2)" x="0.399999976" y="47.9999971" width="75.3999937" height="1"></rect>
                        <path d="M73.3999938,18.3999989 L73.3999938,19.1999989 L68.5989941,19.1989989 L68.5999941,23.9999986 L67.7999941,23.9999986 L67.7999941,18.3999989 L73.3999938,18.3999989 Z" id="形状结合备份" fill="#FFFFFF" mask="url(#mask-2)" transform="translate(70.599994, 21.199999) scale(-1, 1) translate(-70.599994, -21.199999) "></path>
                        <path d="M73.3999938,43.1999974 L73.3999938,43.9999974 L68.5989941,43.9989974 L68.5999941,48.7999971 L67.7999941,48.7999971 L67.7999941,43.1999974 L73.3999938,43.1999974 Z" id="形状结合备份-8" fill="#FFFFFF" mask="url(#mask-2)" transform="translate(70.599994, 45.999997) scale(-1, -1) translate(-70.599994, -45.999997) "></path>
                        <path d="M8.3999995,18.3999989 L8.3999995,19.1999989 L3.59899983,19.1989989 L3.59999979,23.9999986 L2.79999983,23.9999986 L2.79999983,18.3999989 L8.3999995,18.3999989 Z" id="形状结合备份-6" fill="#FFFFFF" mask="url(#mask-2)"></path>
                        <path d="M8.3999995,43.1999974 L8.3999995,43.9999974 L3.59899983,43.9989974 L3.59999979,48.7999971 L2.79999983,48.7999971 L2.79999983,43.1999974 L8.3999995,43.1999974 Z" id="形状结合备份-7" fill="#FFFFFF" mask="url(#mask-2)" transform="translate(5.600000, 45.999997) scale(1, -1) translate(-5.600000, -45.999997) "></path>
                    </g>
                </g>
            </g>
        </g>
    </g>
</svg>