<?xml version="1.0" encoding="UTF-8"?>
<svg width="48px" height="28px" viewBox="0 0 48 28" version="1.1" xmlns="http://www.w3.org/2000/svg" xmlns:xlink="http://www.w3.org/1999/xlink">
    <!-- Generator: Sketch 61.2 (89653) - https://sketch.com -->
    <title>icon_home_chengzhicheng</title>
    <desc>Created with Sketch.</desc>
    <g id="首页+互动交流" stroke="none" stroke-width="1" fill="none" fill-rule="evenodd">
        <g id="首页" transform="translate(-11.000000, -1132.000000)">
            <g id="编组-31" transform="translate(11.000000, 1132.000000)">
                <g id="icon_home_chengzhicheng">
                    <rect id="矩形" fill="#D8D8D8" opacity="0" x="0" y="0" width="48" height="28"></rect>
                    <polyline id="Fill-4" fill="#1A1919" points="20.8136179 18.8278131 15 18.8278131 15 20 28 20 28 18.8278131 22.1393532 18.8278131 22.1393532 16.2632156 27.8085097 16.2632156 27.8085097 15.0916868 22.1393532 15.0916868 22.1393532 14 20.9222633 14 20.9222633 15.0916868 15.1909459 15.0916868 15.1909459 16.2632156 20.9222633 16.2632156 20.9222633 18.8278131 20.8136179 18.8278131"></polyline>
                    <path d="M28,9 L15,9 L15,10.1247842 L16.4319537,10.1247842 L15.4997867,11.9863363 C14.918025,13.71283 16.3881395,13.9808413 16.5114282,14 L26.459761,14 C27.1258896,13.9439976 27.4442224,13.4801886 27.5700116,12.9330077 C27.6265461,12.6891027 27.646007,12.427618 27.6424193,12.1771864 C27.6372007,11.9259127 27.6082811,11.6844288 27.5690331,11.4783149 C27.5103242,11.1740915 27.4555293,10.9639774 27.438134,10.9639774 L21.3741564,10.9639774 L21.3741564,11.7654849 L26.4098584,11.7654849 L26.4317112,11.8465409 C26.6800281,12.7757379 25.8862619,12.9202703 25.8838701,12.9202703 L25.8753899,12.9217441 L25.8632133,12.9217441 L17.4728409,12.9360605 L17.4638171,12.9360605 L17.4551195,12.9345867 C16.4601122,12.7725799 17.0202387,11.7039033 17.0211084,11.70064 L17.0218695,11.70064 L17.7570355,10.1874184 L17.7875858,10.1247842 L28,10.1247842 L28,9" id="Fill-5" fill="#1A1919"></path>
                    <path d="M2.35776506,10.5622048 L3.49543363,10.5622048 L3.20746054,9 L0,9 L1.09919443,12 L6.98305583,12 C6.98305583,12 7.02118021,11.1975939 6.98305583,11.1975939 C6.9455144,11.1975939 7.04344857,10.9144403 6.38414177,10.8682133 L1.88803082,10.8682133 L1.57324243,9.92371333 L2.18742956,9.92371333 L2.35776506,10.5622048" id="Fill-6" fill="#2E5145"></path>
                    <path d="M1,12 L1,12.5492185 C1,12.5492185 0.984268523,13.2344675 2.54721743,13.3612756 L5.85980414,13.7259247 L5.85980414,14.199301 L2.46864951,13.7887826 C2.46864951,13.7887826 1.14044328,13.5981458 1.18741584,14.4054703 L1.18741584,15.781793 C1.18741584,15.781793 1.03112095,16.5097563 2.93741405,16.5893603 L6.79673255,17 C6.79673255,17 7.04384907,15.9235268 5.26826222,15.7978109 L2.2187699,15.3554995 L2.2187699,14.9431609 L5.25012192,15.2909426 C5.25012192,15.2909426 6.90665555,15.5923697 7,14.8644064 L7,13.3770508 C7,13.3770508 7,12.5224007 5.29661395,12.395714 C3.59370843,12.2699981 5.29661395,12.395714 5.29661395,12.395714 L1,12" id="Fill-7" fill="#2E5145"></path>
                    <path d="M8.14723907,12.1559354 L11.4892635,12.1559354 C11.4892635,12.1559354 11.2025364,14.9574006 11.3606774,15.7648894 C11.3606774,15.7648894 10.9160299,15.8633293 10.7724458,15.834785 L10.8010083,13.571103 C10.8010083,13.571103 10.8730209,12.4395333 9.45261914,12.7505902 L8.12606538,13.0069461 L8.14723907,12.1559354 Z M7,21 L8.21969279,21 L8.21969279,14.165215 L9.84003151,13.905386 C9.84003151,13.905386 9.74011816,18.9203907 10.0983064,19.8542125 L9.48118157,19.8542125 L9.39549429,14.7309999 L8.49197322,14.7872202 L8.56321386,20.1371591 C8.56321386,20.1371591 8.66334777,20.9293447 9.50974399,20.9717813 L10.7296573,20.9717813 C10.7296573,20.9717813 11.4322489,20.915778 11.2310989,19.6275946 C11.2310989,19.6275946 10.8152343,17.6460996 10.8581331,16.8968932 L11.4035762,16.8686745 C11.4035762,16.8686745 11.5903899,19.896432 12.2357464,20.9717813 L13.3828751,20.9717813 C13.3828751,20.9717813 12.6222765,19.2873423 12.3935565,16.5992945 L13.1250414,16.4436576 L13.0525876,15.2687831 C13.0525876,15.2687831 12.5080268,15.4392891 12.3072076,15.4671822 C12.3072076,15.4671822 12.3499961,13.1888482 12.6081607,12.1134988 L13.2536274,12.1134988 C13.2536274,12.1134988 13.4830091,10.2456383 14,9 L11.0303899,9 C11.0303899,9 10.7151004,10.2026591 10.8152343,10.6560033 L11.8481134,10.6560033 C11.8481134,10.6560033 11.8341079,10.1893095 12.0348169,9.96280016 L12.6222765,9.96280016 C12.6222765,9.96280016 12.3786688,10.5997829 12.3643324,10.9950617 L7.58834187,10.9950617 C7.58834187,10.9950617 7.11347775,11.0795007 7.09230406,11.4834622 L7,21 L7,21 Z" id="Fill-10" fill="#2E5145"></path>
                </g>
                <path d="M43.9983132,11.1629787 C44.0009505,11.0231068 44.0002625,10.7245643 43.9978546,10.4466109 C43.9579517,10.25549 43.921374,10.0817132 43.8989,9.97250119 L43.4575602,9.97250119 L43.4575602,9 L42.1861713,9 L42.1861713,9.98693597 L40.8900151,9.98693597 L40.8900151,9 L39.6478654,9 L39.6478654,9.96556354 L36.0863024,9.96556354 C35.967511,9.9807816 34.3544249,10.2265085 34.2536357,11.7728201 L34.2536357,19.1781968 C34.2536357,19.1802109 34.2515717,19.5904272 34,19.6574538 L34,20.8678491 C34.3812561,20.8371891 35.5566717,20.6470753 35.6055183,19.4737181 L35.6055183,13.8343078 L36.8990373,13.8343078 C36.9009866,13.8343078 37.6238253,13.8350911 37.5922928,14.7892411 L37.5922928,18.7716731 C37.6091483,18.8696954 37.6284118,19.3336224 36.5678891,19.3128095 L36.5678891,20.505413 L37.7110842,20.505413 C37.8022417,20.4975802 38.8679242,20.3828853 38.8420103,19.0780485 L38.8409783,19.0748035 L38.8409783,13.655048 L38.8420103,13.6500126 C38.8420103,13.6483341 38.8952142,12.7383836 37.549294,12.6964221 L35.5612582,12.6964221 L35.5612582,11.8437631 L35.5621755,11.8349232 C35.5621755,11.8332447 35.6144621,11.0911405 36.8663582,11.1536912 L36.8663582,11.1529079 L39.9097568,11.1529079 L39.9225991,11.2567488 C39.9238604,11.2712955 40.4850236,16.2923602 40.6554135,16.6880298 L40.6905006,16.7682603 L40.6213585,16.8236495 L39.6260793,17.627745 L39.6260793,19.2004644 L40.8598586,18.2187876 L40.9947028,18.1125969 L41.0460721,18.2742888 C41.0466454,18.2810026 41.6944942,20.3841161 43.8289552,21 L43.8289552,19.7276135 C43.5478003,19.5460039 42.316773,18.6770079 42.1528042,17.3227124 L42.1438604,17.2465102 L42.2093333,17.2082413 C42.2147225,17.2048843 43.9021106,16.2444681 43.8200115,14.0372898 L42.5032159,14.0372898 C42.4898002,14.3920049 42.4102238,15.456374 41.9428553,15.7291801 L41.8163815,15.8028086 L41.7715481,15.66372 C41.6903663,15.4069153 41.5152751,14.3535122 41.3869667,13.2985425 C41.2899614,12.5056368 41.2190993,11.7071363 41.232171,11.2380619 L41.2348082,11.1272834 L41.3467198,11.1239265 C41.3529116,11.1239265 43.4905833,11.0572356 43.9983132,11.1629787" id="Fill-1" fill="#1A1919"></path>
                <path d="M30.9926383,12 L29,12 L29,13.2464144 L29.9228274,13.2464144 C30.5833801,13.2464144 30.5473205,13.7387405 30.5350926,13.8307109 C30.5418304,14.0437623 30.6604904,17.6625043 30.5339697,19.3432559 C30.4201759,20.8752078 31.4377067,20.9921135 31.5309127,21 L33,21 L33,19.851587 L32.5273567,19.851587 L32.5141306,19.8499633 C31.947283,19.7455832 31.9737351,19.2232188 31.9828436,19.1336838 L31.9828436,13.2130127 C31.9531474,12.3641706 31.1320107,12.0477829 30.9926383,12" id="Fill-2" fill="#1A1919"></path>
                <polygon id="Fill-3" fill="#1A1919" points="30 10 33 10 33 9 30 9"></polygon>
                <path d="M0.899410436,17.521971 L0,21 L5.34639062,21 C5.34639062,21 6.06353059,20.9338851 5.99544106,19.9420602 L5.99544106,19.2290942 C5.99544106,19.2290942 5.83202616,18.6459243 4.98719211,18.6862828 L3.43370309,18.6862828 C3.43370309,18.6862828 2.42346383,18.9087614 2.55377673,19.5377656 L4.96006105,19.5377656 L4.96006105,19.9689321 L1.40327303,19.9689321 L1.86680566,17.985688 L5.9269325,18.4478838 C5.9269325,18.4478838 6.21332758,17.3907553 4.23747391,17.2976671 L2.18022705,17.0336131 C2.18022705,17.0336131 0.967395222,16.8088022 0.899410436,17.521971" id="Fill-9" fill="#2E5145"></path>
            </g>
        </g>
    </g>
</svg>