<?xml version="1.0" encoding="UTF-8"?>
<svg width="24px" height="24px" viewBox="0 0 24 24" version="1.1" xmlns="http://www.w3.org/2000/svg" xmlns:xlink="http://www.w3.org/1999/xlink">
    <!-- Generator: Sketch 61 (89581) - https://sketch.com -->
    <title>icon_home_nav_search</title>
    <desc>Created with Sketch.</desc>
    <g id="首页+互动交流" stroke="none" stroke-width="1" fill="none" fill-rule="evenodd">
        <g id="首页" transform="translate(-323.000000, -207.000000)">
            <g id="icon_home_nav_search" transform="translate(323.000000, 207.000000)">
                <rect id="矩形" fill="#D8D8D8" opacity="0" x="0" y="0" width="24" height="24"></rect>
                <path d="M10.9090909,5 C14.7272727,5 17.8181818,8.09090909 17.8181818,11.9090909 C17.8181818,13.5587341 17.241212,15.0726198 16.2778979,16.2601223 L19.7818182,19.7636364 C20.0727273,20.0545455 20.0727273,20.4909091 19.7818182,20.7818182 C19.6363636,20.9272727 19.4545454,21 19.2727273,21 C19.0909091,21 18.9090909,20.9272727 18.7636364,20.7818182 L15.2601223,17.2778979 C14.0726198,18.241212 12.5587341,18.8181818 10.9090909,18.8181818 C7.09090909,18.8181818 4,15.7272727 4,11.9090909 C4,8.09090909 7.09090909,5 10.9090909,5 Z M10.9090909,6.45454545 C7.89090909,6.45454545 5.45454545,8.89090908 5.45454545,11.9090909 C5.45454545,14.9272727 7.89090909,17.3636364 10.9090909,17.3636364 C13.9272727,17.3636364 16.3636364,14.9272727 16.3636364,11.9090909 C16.3636364,8.89090909 13.9272727,6.45454545 10.9090909,6.45454545 Z" id="形状结合" fill="#656566" fill-rule="nonzero"></path>
            </g>
        </g>
    </g>
</svg>