<?xml version="1.0" encoding="UTF-8"?>
<svg width="248px" height="76px" viewBox="0 0 248 76" version="1.1" xmlns="http://www.w3.org/2000/svg" xmlns:xlink="http://www.w3.org/1999/xlink">
    <!-- Generator: Sketch 61.2 (89653) - https://sketch.com -->
    <title>pic_pop</title>
    <desc>Created with Sketch.</desc>
    <defs>
        <path d="M37.4459022,-3.66640058e-14 C16.7986148,-3.66640058e-14 -2.19984035e-13,16.7986148 -2.19984035e-13,37.4459022 C-2.19984035e-13,58.0931895 16.7986148,74.8918043 37.4459022,74.8918043 C58.0931895,74.8918043 74.8918043,58.0931895 74.8918043,37.4459022 C74.8918043,16.7986148 58.0931895,-3.66640058e-14 37.4459022,-3.66640058e-14 Z M37.4459022,65.431733 C22.014259,65.431733 9.46000291,52.8774715 9.46000291,37.4458283 L9.46000291,37.4458856 C9.45554277,31.6588789 11.2555213,26.0144968 14.6093761,21.2984595 L31.508134,38.1972174 L13.638173,38.1972174 L13.638173,45.4144151 L38.7253096,45.4144151 L53.5932693,60.2823747 L53.5932693,60.2823746 C48.8772246,63.636222 43.2327833,65.4361961 37.4458432,65.431733 L37.4459022,65.431733 Z M60.2823691,53.5933283 L50.2902323,43.6020044 L50.2902323,38.1971823 L44.8854101,38.1971823 L21.2984243,14.6101964 L21.2984243,14.6101961 C26.014233,11.2557648 31.658763,9.45546558 37.4458509,9.46000224 C52.8774941,9.46000224 65.4317502,22.0142586 65.4317502,37.4459018 L65.4317502,37.4458476 C65.4362097,43.2328542 63.6362244,48.8772364 60.2823769,53.5933283 L60.2823691,53.5933283 Z" id="path-1"></path>
    </defs>
    <g id="首页+互动交流" stroke="none" stroke-width="1" fill="none" fill-rule="evenodd">
        <g id="弹窗" transform="translate(-64.000000, -276.000000)">
            <g id="pic_pop" transform="translate(64.000000, 276.000000)">
                <g id="编组" transform="translate(91.880002, 23.220000)" font-family="MicrosoftYaHei-Bold, Microsoft YaHei" font-size="22.3600004" font-weight="bold" letter-spacing="3.44000006">
                    <text id="吸烟有害健康" stroke="#FFFFFF" stroke-width="5.16000009" fill="#FFFFFF">
                        <tspan x="1" y="24">吸烟有害健康</tspan>
                    </text>
                    <text id="吸烟有害健康" fill="#FF4141">
                        <tspan x="0.860000014" y="24">吸烟有害健康</tspan>
                    </text>
                </g>
                <g id="icon_pop_xiyan">
                    <g id="吸烟_smoking6" transform="translate(48.625858, 16.805833)" fill="#FFFFFF" fill-rule="nonzero">
                        <path d="M4.20830404,21.3905632 L11.7006329,21.3905632 L11.7006329,28.607761 L4.20830404,28.607761 L4.20830404,21.3905632 Z M4.22170577,9.67042237 C1.56738184,5.4686032 3.77787383,2.95302364 4.03802413,2.68183912 L3.04393216,1.70982297 L2.03723177,0.703122579 C0.59458007,2.14656508 -1.30372637,6.19150326 1.84330154,11.1729899 C4.49526047,15.3748091 2.28713349,17.8895979 2.03723177,18.1513224 L4.02698992,20.1410805 C5.47043242,18.6968546 7.36716466,14.6511182 4.22170873,9.67040019 L4.22170577,9.67042237 Z M8.97615218,16.7433549 L10.9659103,18.7338965 C12.2201526,17.4788708 13.8756546,13.96999 11.1598406,9.6703928 C9.03527725,6.30420303 10.7743451,4.30183647 10.9793118,4.08583042 L9.97182057,3.10435426 L8.9761544,2.10947888 C7.72191212,3.36372116 6.06562676,6.8733853 8.78064775,11.1721696 C10.9075761,14.5383593 9.16929678,16.5391517 8.9761544,16.7433254 L8.97615218,16.7433549 Z" id="形状"></path>
                    </g>
                    <g id="路径-7">
                        <mask id="mask-2" fill="white">
                            <use xlink:href="#path-1"></use>
                        </mask>
                        <use id="蒙版" fill="#FF4141" fill-rule="nonzero" xlink:href="#path-1"></use>
                        <polygon fill="#FFFFFF" mask="url(#mask-2)" points="31.5266361 38.1963966 38.7871887 45.4135944 52.129851 45.4135944 36.5327999 29.8599804 52.8341624 15.6547345 61.5258585 37.4459022 62.3175238 45.4135944 38.7871887 45.4135944 13.0591951 45.4135944 13.0591951 33.9302008"></polygon>
                    </g>
                </g>
            </g>
        </g>
    </g>
</svg>