<?xml version="1.0" encoding="UTF-8"?>
<svg width="173px" height="53px" viewBox="0 0 173 53" version="1.1" xmlns="http://www.w3.org/2000/svg" xmlns:xlink="http://www.w3.org/1999/xlink">
    <!-- Generator: Sketch 62 (91390) - https://sketch.com -->
    <title>pic_pop</title>
    <desc>Created with Sketch.</desc>
    <defs>
        <path d="M14.6300255,-1.43245405e-14 C6.56317913,-1.43245405e-14 -8.59472427e-14,6.56317913 -8.59472427e-14,14.6300255 C-8.59472427e-14,22.6968719 6.56317913,29.2600511 14.6300255,29.2600511 C22.6968719,29.2600511 29.2600511,22.6968719 29.2600511,14.6300255 C29.2600511,6.56317913 22.6968719,-1.43245405e-14 14.6300255,-1.43245405e-14 Z M14.6300255,25.5640235 C8.60091897,25.5640235 3.69600079,20.6591032 3.69600079,14.6299967 L3.69600079,14.630019 C3.69425823,12.3690492 4.3975056,10.1638024 5.70784875,8.32125781 L12.3101535,14.9235626 L5.32840196,14.9235626 L5.32840196,17.7433047 L15.129887,17.7433047 L20.9387637,23.5521814 L20.9387637,23.5521814 C19.0962162,24.8625216 16.8909463,25.5657672 14.6300025,25.5640235 L14.6300255,25.5640235 Z M23.5521792,20.9387868 L19.648275,17.0352001 L19.648275,14.9235489 L17.5366237,14.9235489 L8.32124408,5.70816924 L8.32124408,5.70816911 C10.1636994,4.39760073 12.3690039,3.69422807 14.6300055,3.69600053 C20.6591121,3.69600053 25.5640302,8.60091884 25.5640302,14.6300254 L25.5640302,14.6300042 C25.5657726,16.890974 24.8625225,19.0962208 23.5521823,20.9387868 L23.5521792,20.9387868 Z" id="path-1"></path>
    </defs>
    <g id="首页" stroke="none" stroke-width="1" fill="none" fill-rule="evenodd">
        <g id="首页弹窗" transform="translate(-859.000000, -480.000000)">
            <g id="pic_pop" transform="translate(859.000000, 480.000000)">
                <g id="编组" transform="translate(54.800000, 16.200000)" font-family="MicrosoftYaHei-Bold, Microsoft YaHei" font-size="15.6" font-weight="bold" letter-spacing="2.4">
                    <text id="吸烟有害健康" stroke="#FFFFFF" stroke-width="3.6" fill="#FFFFFF">
                        <tspan x="0.5" y="17">吸烟有害健康</tspan>
                    </text>
                    <text id="吸烟有害健康" fill="#FF4141">
                        <tspan x="0.5" y="17">吸烟有害健康</tspan>
                    </text>
                </g>
                <g id="icon_pop_xiyan" transform="translate(17.000000, 14.000000)">
                    <g id="吸烟_smoking6" transform="translate(18.998008, 6.565999)" fill="#FFFFFF" fill-rule="nonzero">
                        <path d="M1.64417445,8.35724253 L4.57140963,8.35724253 L4.57140963,11.1769846 L1.64417445,11.1769846 L1.64417445,8.35724253 Z M1.64941047,3.77821118 C0.612372383,2.13657035 1.47600638,1.15373936 1.57764649,1.04778821 L1.18925711,0.668023796 L0.795941642,0.274708331 C0.232301029,0.838657906 -0.509362815,2.4190057 0.720173559,4.36526078 C1.75628765,6.0069016 0.893577652,6.98942363 0.795941642,7.09167878 L1.57333545,7.86907259 C2.13728502,7.30481693 2.87833383,5.72415729 1.64941163,3.77820251 L1.64941047,3.77821118 Z M3.50696145,6.54158922 L4.28435526,7.3192891 C4.77438476,6.82895353 5.42118546,5.45804212 4.36012334,3.77819963 C3.53006148,2.46303723 4.20951118,1.68071735 4.28959117,1.59632429 L3.89596674,1.21286388 L3.50696232,0.824168415 C3.01693283,1.31419791 2.36982605,2.6854154 3.43057833,4.36494026 C4.2615642,5.68010266 3.5824226,6.46180751 3.50696232,6.54157767 L3.50696145,6.54158922 Z" id="形状"></path>
                    </g>
                    <g id="路径-7">
                        <mask id="mask-2" fill="white">
                            <use xlink:href="#path-1"></use>
                        </mask>
                        <use id="蒙版" fill="#FF4141" fill-rule="nonzero" xlink:href="#path-1"></use>
                        <polygon fill="#FFFFFF" mask="url(#mask-2)" points="12.3173823 14.9232419 15.154063 17.742984 20.3670097 17.742984 14.2732786 11.6662238 20.6421824 6.11626779 24.0380076 14.6300255 24.3473093 17.742984 15.154063 17.742984 5.10219666 17.742984 5.10219666 13.2564493"></polygon>
                    </g>
                </g>
            </g>
        </g>
    </g>
</svg>